<svg width="101" height="90" viewBox="0 0 101 90" fill="none" xmlns="http://www.w3.org/2000/svg">
<path d="M90.7196 37.0276L79.4774 33.8149C74.4147 32.3876 69.8031 29.685 66.0837 25.9656C62.3643 22.2462 59.6616 17.6345 58.2343 12.5719L55.0217 1.32967C54.8601 0.936342 54.5853 0.599926 54.2321 0.363168C53.8788 0.12641 53.4632 0 53.038 0C52.6128 0 52.1972 0.12641 51.844 0.363168C51.4907 0.599926 51.2159 0.936342 51.0543 1.32967L47.8417 12.5719C46.4144 17.6345 43.7117 22.2462 39.9923 25.9656C36.2729 29.685 31.6613 32.3876 26.5986 33.8149L15.3564 37.0276C14.9248 37.1501 14.5448 37.4101 14.2743 37.7681C14.0038 38.1261 13.8574 38.5625 13.8574 39.0113C13.8574 39.46 14.0038 39.8964 14.2743 40.2544C14.5448 40.6124 14.9248 40.8724 15.3564 40.9949L26.5986 44.2076C31.6613 45.6349 36.2729 48.3375 39.9923 52.0569C43.7117 55.7763 46.4144 60.388 47.8417 65.4506L51.0543 76.6928C51.1769 77.1245 51.4368 77.5044 51.7948 77.775C52.1528 78.0455 52.5893 78.1918 53.038 78.1918C53.4867 78.1918 53.9232 78.0455 54.2812 77.775C54.6392 77.5044 54.8992 77.1245 55.0217 76.6928L58.2343 65.4506C59.6616 60.388 62.3643 55.7763 66.0837 52.0569C69.8031 48.3375 74.4147 45.6349 79.4774 44.2076L90.7196 40.9949C91.1513 40.8724 91.5312 40.6124 91.8017 40.2544C92.0722 39.8964 92.2186 39.46 92.2186 39.0113C92.2186 38.5625 92.0722 38.1261 91.8017 37.7681C91.5312 37.4101 91.1513 37.1501 90.7196 37.0276Z" fill="url(#paint0_linear_367_9)"/>
<path d="M35.026 70.3213L29.9029 68.8573C27.5959 68.2069 25.4944 66.9753 23.7994 65.2804C22.1045 63.5854 20.8729 61.4839 20.2225 59.1769L18.7585 54.0538C18.6849 53.8746 18.5596 53.7213 18.3987 53.6134C18.2377 53.5055 18.0483 53.4479 17.8545 53.4479C17.6608 53.4479 17.4714 53.5055 17.3104 53.6134C17.1495 53.7213 17.0242 53.8746 16.9506 54.0538L15.4866 59.1769C14.8362 61.4839 13.6046 63.5854 11.9096 65.2804C10.2147 66.9753 8.1132 68.2069 5.80615 68.8573L0.68309 70.3213C0.486382 70.3771 0.313254 70.4956 0.189977 70.6587C0.0666988 70.8219 0 71.0208 0 71.2253C0 71.4297 0.0666988 71.6286 0.189977 71.7918C0.313254 71.9549 0.486382 72.0734 0.68309 72.1292L5.80615 73.5932C8.1132 74.2436 10.2147 75.4752 11.9096 77.1702C13.6046 78.8651 14.8362 80.9666 15.4866 83.2737L16.9506 88.3967C17.0064 88.5934 17.1249 88.7665 17.288 88.8898C17.4512 89.0131 17.6501 89.0798 17.8545 89.0798C18.059 89.0798 18.2579 89.0131 18.4211 88.8898C18.5842 88.7665 18.7027 88.5934 18.7585 88.3967L20.2225 83.2737C20.8729 80.9666 22.1045 78.8651 23.7994 77.1702C25.4944 75.4752 27.5959 74.2436 29.9029 73.5932L35.026 72.1292C35.2227 72.0734 35.3958 71.9549 35.5191 71.7918C35.6424 71.6286 35.7091 71.4297 35.7091 71.2253C35.7091 71.0208 35.6424 70.8219 35.5191 70.6587C35.3958 70.4956 35.2227 70.3771 35.026 70.3213Z" fill="url(#paint1_linear_367_9)"/>
<path d="M100.621 13.3332L97.7749 12.5199C96.4932 12.1586 95.3256 11.4743 94.384 10.5327C93.4424 9.59109 92.7582 8.42357 92.3968 7.14188L91.5835 4.29573C91.5426 4.19616 91.473 4.11099 91.3836 4.05105C91.2942 3.99111 91.189 3.95911 91.0813 3.95911C90.9737 3.95911 90.8684 3.99111 90.779 4.05105C90.6896 4.11099 90.62 4.19616 90.5791 4.29573L89.7658 7.14188C89.4044 8.42357 88.7202 9.59109 87.7786 10.5327C86.837 11.4743 85.6694 12.1586 84.3877 12.5199L81.5416 13.3332C81.4323 13.3642 81.3361 13.4301 81.2677 13.5207C81.1992 13.6113 81.1621 13.7218 81.1621 13.8354C81.1621 13.949 81.1992 14.0595 81.2677 14.1502C81.3361 14.2408 81.4323 14.3066 81.5416 14.3376L84.3877 15.151C85.6694 15.5123 86.837 16.1965 87.7786 17.1382C88.7202 18.0798 89.4044 19.2473 89.7658 20.529L90.5791 23.3751C90.6101 23.4844 90.6759 23.5806 90.7666 23.6491C90.8572 23.7176 90.9677 23.7546 91.0813 23.7546C91.1949 23.7546 91.3054 23.7176 91.396 23.6491C91.4867 23.5806 91.5525 23.4844 91.5835 23.3751L92.3968 20.529C92.7582 19.2473 93.4424 18.0798 94.384 17.1382C95.3256 16.1965 96.4932 15.5123 97.7749 15.151L100.621 14.3376C100.73 14.3066 100.826 14.2408 100.895 14.1502C100.963 14.0595 101 13.949 101 13.8354C101 13.7218 100.963 13.6113 100.895 13.5207C100.826 13.4301 100.73 13.3642 100.621 13.3332Z" fill="url(#paint2_linear_367_9)"/>
<defs>
<linearGradient id="paint0_linear_367_9" x1="0.990333" y1="85.1207" x2="109.866" y2="0.989768" gradientUnits="userSpaceOnUse">
<stop stop-color="#AB47BC" stop-opacity="0.701961"/>
<stop offset="1" stop-color="#EC407A" stop-opacity="0.701961"/>
</linearGradient>
<linearGradient id="paint1_linear_367_9" x1="-2.96933" y1="86.1105" x2="105.906" y2="4.94887" gradientUnits="userSpaceOnUse">
<stop stop-color="#AB47BC" stop-opacity="0.701961"/>
<stop offset="1" stop-color="#EC407A" stop-opacity="0.701961"/>
</linearGradient>
<linearGradient id="paint2_linear_367_9" x1="5.93915" y1="87.1003" x2="109.866" y2="-0.989772" gradientUnits="userSpaceOnUse">
<stop stop-color="#AB47BC" stop-opacity="0.701961"/>
<stop offset="1" stop-color="#EC407A" stop-opacity="0.701961"/>
</linearGradient>
</defs>
</svg>
