<svg width="28" height="48" viewBox="0 0 28 48" fill="none" xmlns="http://www.w3.org/2000/svg">
<path d="M17.6996 29C21.2996 28.1 24.3996 25.9 26.5996 23V40.2C19.9996 36.3 18.0996 30.6 17.6996 29Z" fill="black"/>
<path d="M13.8 29.5C14.4 29.5 15.1 29.5 15.7 29.4C16.1 31.2 18.3 38.2 26.5 42.5V48C19.5 48 13.1 45.1 8.5 40.5C4 36 1.2 29.8 1 23C3.9 26.9 8.6 29.5 13.8 29.5Z" fill="black"/>
<path d="M6.1 2.4C8.3 0.9 10.9 0 13.8 0C16.6 0 19.3 0.9 21.5 2.3C19.6 2.5 16.8 3.2 13.8 6.2C11 3.2 8 2.5 6.1 2.4Z" fill="black"/>
<path d="M12.9996 8.40001C13.1996 8.60001 13.4996 8.70001 13.7996 8.80001C14.0996 8.80001 14.3996 8.70001 14.5996 8.50001C19.6996 2.80001 22.9996 4.90001 23.8996 4.50001C26.1996 7.00001 27.5996 10.3 27.5996 13.9C27.5996 21.5 21.3996 27.7 13.7996 27.7C6.19961 27.7 -0.000389099 21.5 -0.000389099 13.9C-0.000389099 10.3 1.39961 6.90001 3.69961 4.50001C4.59961 4.80001 8.69961 3.10001 12.9996 8.40001ZM20.4996 15.3C22.1996 15.3 23.4996 14 23.4996 12.3C23.4996 10.7 22.1996 9.30001 20.4996 9.30001C18.7996 9.30001 17.4996 10.7 17.4996 12.3C17.4996 14 18.7996 15.3 20.4996 15.3ZM13.7996 20.3L15.8996 15.3H11.5996L13.7996 20.3ZM7.09961 15.3C8.79961 15.3 10.0996 14 10.0996 12.3C10.0996 10.7 8.79961 9.30001 7.09961 9.30001C5.39961 9.30001 4.09961 10.7 4.09961 12.3C4.09961 14 5.49961 15.3 7.09961 15.3Z" fill="black"/>
</svg>
