<svg width="57" height="90" viewBox="0 0 57 90" fill="none" xmlns="http://www.w3.org/2000/svg">
<path d="M55.9851 43.487C50.7991 52.887 40.977 59.383 29.623 59.875C31.077 73.916 41.2291 85.144 55.9851 88.845V43.487Z" fill="black"/>
<path d="M26.1633 59.834C15.1003 59.115 5.56928 52.695 0.488281 43.485V56.372C0.488281 75.543 15.7713 90 36.0383 90H48.6603C35.8903 84.539 27.4043 73.347 26.1633 59.834Z" fill="black"/>
<path d="M28.2379 21.208C30.8859 15.607 36.5749 11.714 43.1689 11.714C46.9729 11.714 50.4699 13.019 53.2659 15.186C48.5459 6.17 39.1019 0 28.2379 0C17.3749 0 7.93194 6.17 3.21094 15.185C6.00694 13.018 9.50294 11.714 13.3059 11.714C19.9019 11.714 25.5899 15.608 28.2379 21.208Z" fill="black"/>
<path d="M13.3012 33.964C16.4582 33.964 19.0282 31.395 19.0282 28.237C19.0282 25.08 16.4592 22.511 13.3012 22.511C10.1432 22.511 7.57422 25.08 7.57422 28.237C7.57522 31.395 10.1442 33.964 13.3012 33.964Z" fill="black"/>
<path d="M43.1704 33.964C46.3274 33.964 48.8974 31.395 48.8974 28.237C48.8974 25.08 46.3284 22.511 43.1704 22.511C40.0124 22.511 37.4434 25.08 37.4434 28.237C37.4434 31.395 40.0134 33.964 43.1704 33.964Z" fill="black"/>
<path d="M28.237 56.475C43.258 56.475 55.577 44.685 56.427 29.873C56.831 22.827 52.105 16.313 45.122 15.292C37.067 14.114 29.954 20.378 29.954 28.238V35.644C29.954 36.592 29.185 37.361 28.237 37.361C27.289 37.361 26.52 36.592 26.52 35.644V28.238C26.52 21.021 20.523 15.149 13.305 15.149C6.087 15.149 0 21.021 0 28.238C0.001 43.808 12.668 56.475 28.237 56.475ZM43.171 19.077C48.222 19.077 52.332 23.186 52.332 28.238C52.332 33.29 48.222 37.399 43.171 37.399C38.12 37.399 34.01 33.289 34.01 28.238C34.01 23.187 38.12 19.077 43.171 19.077ZM13.301 19.077C18.352 19.077 22.462 23.186 22.462 28.238C22.462 33.29 18.352 37.399 13.301 37.399C8.25 37.399 4.14 33.289 4.14 28.238C4.14 23.187 8.25 19.077 13.301 19.077Z" fill="black"/>
</svg>
