<svg width="59" height="90" viewBox="0 0 59 90" fill="none" xmlns="http://www.w3.org/2000/svg">
<path d="M18.0612 90H0.00115585V81.15C14.5362 80.181 26.5592 70.674 30.2632 58.013C42.4682 57.712 53.0812 51.399 58.7852 42.15V49.274C58.7862 71.73 40.5162 90 18.0612 90Z" fill="black"/>
<path d="M3.43323e-05 76.248V42.271C5.20803 50.628 14.431 56.564 25.207 57.79C21.726 67.853 11.869 75.335 3.43323e-05 76.248Z" fill="black"/>
<path d="M29.3615 17.75C26.4485 10.894 20.3815 5.996 13.2185 4.504C17.8345 1.661 23.3865 0 29.3545 0C35.3185 0 40.8655 1.659 45.4805 4.497C41.2335 5.383 37.3215 7.481 34.1685 10.635C32.1245 12.677 30.4905 15.112 29.3615 17.75Z" fill="black"/>
<path d="M51.0314 8.94301C55.5854 13.637 58.3594 19.812 58.3594 26.571C58.3594 41.223 45.3484 53.143 29.3544 53.143C13.3624 53.143 0.351376 41.223 0.351376 26.571C0.351376 19.816 3.12138 13.645 7.67038 8.95201C7.98538 8.93501 8.29837 8.90601 8.61637 8.90601C16.2244 8.90601 22.9554 13.767 25.3674 21.003C25.9664 22.802 26.2704 24.672 26.2704 26.561V35.656H27.5484H31.1614H32.4394V26.561C32.4394 24.671 32.7444 22.802 33.3434 21.004C34.2024 18.426 35.6844 16.036 37.6264 14.094C40.9714 10.748 45.3994 8.90601 50.0934 8.90601C50.4084 8.90601 50.7194 8.92701 51.0314 8.94301ZM13.1904 21.243C10.2524 21.243 7.86238 23.633 7.86238 26.571C7.86238 29.509 10.2524 31.9 13.1904 31.9C16.1284 31.9 18.5184 29.509 18.5184 26.571C18.5184 23.633 16.1274 21.243 13.1904 21.243ZM45.5944 21.243C42.6564 21.243 40.2664 23.633 40.2664 26.571C40.2664 29.509 42.6574 31.9 45.5944 31.9C48.5324 31.9 50.9224 29.509 50.9224 26.571C50.9224 23.633 48.5324 21.243 45.5944 21.243Z" fill="black"/>
<path d="M45.5959 28.232C44.6791 28.232 43.9359 27.4888 43.9359 26.572C43.9359 25.6552 44.6791 24.912 45.5959 24.912C46.5127 24.912 47.2559 25.6552 47.2559 26.572C47.2559 27.4888 46.5127 28.232 45.5959 28.232Z" fill="black"/>
<path d="M13.1916 28.232C12.2748 28.232 11.5316 27.4888 11.5316 26.572C11.5316 25.6552 12.2748 24.912 13.1916 24.912C14.1084 24.912 14.8516 25.6552 14.8516 26.572C14.8516 27.4888 14.1084 28.232 13.1916 28.232Z" fill="black"/>
</svg>
