<svg width="59" height="90" viewBox="0 0 59 90" fill="none" xmlns="http://www.w3.org/2000/svg">
<path d="M40.724 90H58.784V81.15C44.249 80.181 32.226 70.674 28.522 58.013C16.317 57.712 5.704 51.399 4.10489e-08 42.15V49.274C-0.000999959 71.73 18.269 90 40.724 90Z" fill="black"/>
<path d="M58.7851 76.248V42.271C53.5771 50.628 44.3541 56.564 33.5781 57.79C37.0591 67.853 46.9161 75.335 58.7851 76.248Z" fill="black"/>
<path d="M29.4237 17.75C32.3367 10.894 38.4037 5.996 45.5667 4.504C40.9507 1.661 35.3987 0 29.4307 0C23.4667 0 17.9197 1.659 13.3047 4.497C17.5517 5.383 21.4637 7.481 24.6167 10.635C26.6607 12.677 28.2947 15.112 29.4237 17.75Z" fill="black"/>
<path d="M7.75378 8.94301C3.19978 13.637 0.425781 19.812 0.425781 26.571C0.425781 41.223 13.4368 53.143 29.4308 53.143C45.4228 53.143 58.4338 41.223 58.4338 26.571C58.4338 19.816 55.6638 13.645 51.1148 8.95201C50.7998 8.93501 50.4868 8.90601 50.1688 8.90601C42.5608 8.90601 35.8298 13.767 33.4178 21.003C32.8188 22.802 32.5148 24.672 32.5148 26.561V35.656H31.2368H27.6238H26.3458V26.561C26.3458 24.671 26.0408 22.802 25.4418 21.004C24.5828 18.426 23.1008 16.036 21.1588 14.094C17.8138 10.748 13.3858 8.90601 8.69178 8.90601C8.37678 8.90601 8.06578 8.92701 7.75378 8.94301ZM45.5948 21.243C48.5328 21.243 50.9228 23.633 50.9228 26.571C50.9228 29.509 48.5328 31.9 45.5948 31.9C42.6568 31.9 40.2668 29.509 40.2668 26.571C40.2668 23.633 42.6578 21.243 45.5948 21.243ZM13.1908 21.243C16.1288 21.243 18.5188 23.633 18.5188 26.571C18.5188 29.509 16.1278 31.9 13.1908 31.9C10.2528 31.9 7.86278 29.509 7.86278 26.571C7.86278 23.633 10.2528 21.243 13.1908 21.243Z" fill="black"/>
<path d="M13.1893 28.232C14.1061 28.232 14.8493 27.4888 14.8493 26.572C14.8493 25.6552 14.1061 24.912 13.1893 24.912C12.2725 24.912 11.5293 25.6552 11.5293 26.572C11.5293 27.4888 12.2725 28.232 13.1893 28.232Z" fill="black"/>
<path d="M45.5936 28.232C46.5104 28.232 47.2536 27.4888 47.2536 26.572C47.2536 25.6552 46.5104 24.912 45.5936 24.912C44.6768 24.912 43.9336 25.6552 43.9336 26.572C43.9336 27.4888 44.6768 28.232 45.5936 28.232Z" fill="black"/>
</svg>
