<svg width="57" height="90" viewBox="0 0 57 90" fill="none" xmlns="http://www.w3.org/2000/svg">
<path d="M0.466122 43.487C5.65212 52.887 15.4741 59.383 26.8281 59.875C25.3741 73.916 15.2221 85.144 0.466122 88.845V43.487Z" fill="black"/>
<path d="M30.2879 59.834C41.3509 59.115 50.8819 52.695 55.9629 43.485V56.372C55.9629 75.543 40.6799 90 20.4129 90H7.79089C20.5609 84.539 29.0469 73.347 30.2879 59.834Z" fill="black"/>
<path d="M28.2132 21.208C25.5652 15.607 19.8762 11.714 13.2822 11.714C9.47823 11.714 5.98123 13.019 3.18523 15.186C7.90523 6.17 17.3492 0 28.2132 0C39.0762 0 48.5192 6.17 53.2402 15.185C50.4442 13.018 46.9482 11.714 43.1452 11.714C36.5492 11.714 30.8612 15.608 28.2132 21.208Z" fill="black"/>
<path d="M43.15 33.964C39.993 33.964 37.423 31.395 37.423 28.237C37.423 25.08 39.992 22.511 43.15 22.511C46.308 22.511 48.877 25.08 48.877 28.237C48.876 31.395 46.307 33.964 43.15 33.964Z" fill="black"/>
<path d="M13.2808 33.964C10.1238 33.964 7.55381 31.395 7.55381 28.237C7.55381 25.08 10.1228 22.511 13.2808 22.511C16.4388 22.511 19.0078 25.08 19.0078 28.237C19.0078 31.395 16.4378 33.964 13.2808 33.964Z" fill="black"/>
<path d="M28.2142 56.475C13.1932 56.475 0.874178 44.685 0.0241776 29.873C-0.379822 22.827 4.34617 16.313 11.3292 15.292C19.3842 14.114 26.4972 20.378 26.4972 28.238V35.644C26.4972 36.592 27.2662 37.361 28.2142 37.361C29.1622 37.361 29.9312 36.592 29.9312 35.644V28.238C29.9312 21.021 35.9282 15.149 43.1462 15.149C50.3642 15.149 56.4512 21.021 56.4512 28.238C56.4502 43.808 43.7832 56.475 28.2142 56.475ZM13.2802 19.077C8.22917 19.077 4.11917 23.186 4.11917 28.238C4.11917 33.29 8.22917 37.399 13.2802 37.399C18.3312 37.399 22.4412 33.289 22.4412 28.238C22.4412 23.187 18.3312 19.077 13.2802 19.077ZM43.1502 19.077C38.0992 19.077 33.9892 23.186 33.9892 28.238C33.9892 33.29 38.0992 37.399 43.1502 37.399C48.2012 37.399 52.3112 33.289 52.3112 28.238C52.3112 23.187 48.2012 19.077 43.1502 19.077Z" fill="black"/>
</svg>
