<svg width="482" height="490" viewBox="0 0 482 490" fill="none" xmlns="http://www.w3.org/2000/svg">
<path fill-rule="evenodd" clip-rule="evenodd" d="M396.816 176.886C396.823 162.74 394.068 148.728 388.705 135.638C383.838 142.884 376.346 147.955 367.81 149.782C359.275 151.609 350.363 150.048 342.957 145.429C335.55 140.81 330.228 133.494 328.113 125.025C325.999 116.556 327.257 107.597 331.623 100.038L342.447 81.29C322.615 68.8968 299.744 62.2262 276.359 62.015V96.883C276.363 98.388 275.959 99.8659 275.19 101.16C274.421 102.454 273.316 103.515 271.993 104.231C270.669 104.948 269.176 105.292 267.673 105.228C266.169 105.164 264.711 104.694 263.453 103.868C260.646 102.039 257.398 101.002 254.05 100.866C250.703 100.731 247.381 101.502 244.436 103.098C241.49 104.694 239.031 107.056 237.317 109.935C235.603 112.813 234.698 116.101 234.698 119.451C234.698 122.801 235.603 126.089 237.317 128.967C239.031 131.846 241.49 134.208 244.436 135.804C247.381 137.4 250.703 138.171 254.05 138.036C257.398 137.9 260.646 136.863 263.453 135.034C264.711 134.208 266.169 133.738 267.673 133.675C269.177 133.611 270.669 133.955 271.993 134.672C273.316 135.388 274.421 136.45 275.19 137.743C275.959 139.037 276.363 140.515 276.359 142.02V176.887H314.019C315.524 176.884 317.001 177.289 318.294 178.058C319.587 178.827 320.648 179.932 321.363 181.255C322.079 182.579 322.423 184.071 322.359 185.574C322.295 187.077 321.826 188.535 321 189.793C319.171 192.6 318.134 195.848 317.999 199.196C317.863 202.543 318.634 205.865 320.231 208.81C321.827 211.755 324.189 214.215 327.067 215.929C329.946 217.643 333.233 218.548 336.583 218.548C339.934 218.548 343.221 217.643 346.1 215.929C348.978 214.215 351.34 211.755 352.936 208.81C354.533 205.865 355.304 202.543 355.168 199.196C355.033 195.848 353.996 192.6 352.167 189.793C351.341 188.535 350.871 187.077 350.807 185.573C350.743 184.069 351.087 182.576 351.804 181.253C352.52 179.929 353.582 178.824 354.875 178.055C356.169 177.287 357.647 176.882 359.152 176.886H396.816ZM325.028 56.125L327.836 47.225C328.82 43.9876 330.809 41.147 333.513 39.1135C336.218 37.08 339.499 35.9588 342.882 35.912C361.991 35.449 380.693 33.26 403.24 23.676L446.759 99.052C447.61 100.529 448.637 101.898 449.816 103.129C445.792 108.022 440.919 112.149 435.431 115.312L404.041 133.435C400.29 123.399 395.265 113.886 389.091 105.129L376.929 126.195C374.455 130.48 370.38 133.607 365.6 134.888C360.821 136.169 355.728 135.499 351.443 133.025C347.157 130.55 344.03 126.475 342.749 121.696C341.469 116.916 342.139 111.823 344.613 107.538L362.253 76.984C350.977 68.1789 338.425 61.1444 325.028 56.125ZM263.711 455.151H165.441C172.118 475.369 191.59 490 214.575 490C237.56 490 257.033 475.37 263.711 455.151ZM94.1 243.113C94.1 180.172 147.883 129.06 214.556 128.241V163.127C214.556 164.63 214.149 166.104 213.38 167.394C212.61 168.685 211.505 169.743 210.183 170.457C208.861 171.171 207.371 171.514 205.87 171.45C204.369 171.386 202.913 170.918 201.656 170.094C198.849 168.265 195.601 167.228 192.253 167.092C188.906 166.957 185.584 167.728 182.639 169.324C179.693 170.92 177.234 173.282 175.52 176.161C173.806 179.039 172.901 182.327 172.901 185.677C172.901 189.027 173.806 192.315 175.52 195.193C177.234 198.072 179.693 200.434 182.639 202.03C185.584 203.626 188.906 204.397 192.253 204.262C195.601 204.126 198.849 203.089 201.656 201.26C202.913 200.435 204.369 199.965 205.871 199.901C207.373 199.836 208.864 200.179 210.187 200.893C211.51 201.607 212.615 202.666 213.385 203.957C214.155 205.248 214.561 206.724 214.561 208.227V243.113H252.24C253.743 243.113 255.219 243.519 256.51 244.289C257.801 245.06 258.86 246.165 259.574 247.488C260.288 248.81 260.631 250.302 260.566 251.804C260.502 253.306 260.032 254.762 259.207 256.019C257.378 258.826 256.341 262.074 256.205 265.422C256.07 268.769 256.841 272.091 258.437 275.036C260.033 277.982 262.395 280.441 265.274 282.155C268.152 283.87 271.44 284.774 274.79 284.774C278.14 284.774 281.428 283.87 284.306 282.155C287.185 280.441 289.547 277.982 291.143 275.036C292.739 272.091 293.51 268.769 293.375 265.422C293.239 262.074 292.202 258.826 290.373 256.019C289.548 254.762 289.078 253.306 289.014 251.804C288.949 250.302 289.292 248.81 290.006 247.488C290.72 246.165 291.779 245.06 293.07 244.289C294.361 243.519 295.837 243.113 297.34 243.113H335.018C335.018 304.564 299.732 329.936 280.743 362.505C280.21 362.473 279.673 362.457 279.133 362.457H149.986C149.445 362.457 148.909 362.473 148.376 362.505C129.386 329.936 94.1 304.564 94.1 243.113ZM459.749 91.551C460.589 92.9961 461.967 94.05 463.581 94.4826C465.196 94.9152 466.916 94.6914 468.366 93.86L478.375 88.081C479.82 87.2411 480.874 85.8635 481.307 84.2489C481.74 82.6344 481.516 80.9142 480.685 79.464L436.624 3.149C435.784 1.70395 434.406 0.650014 432.792 0.217387C431.177 -0.215239 429.457 0.00859451 428.007 0.840002L418 6.619C416.555 7.45886 415.501 8.8366 415.068 10.4512C414.635 12.0658 414.859 13.786 415.691 15.236L459.751 91.551H459.749ZM421.887 241.2C423.876 241.2 425.784 241.99 427.19 243.397C428.597 244.803 429.387 246.711 429.387 248.7C429.387 250.689 428.597 252.597 427.19 254.003C425.784 255.41 423.876 256.2 421.887 256.2H385.681C383.692 256.2 381.784 255.41 380.378 254.003C378.971 252.597 378.181 250.689 378.181 248.7C378.181 246.711 378.971 244.803 380.378 243.397C381.784 241.99 383.692 241.2 385.681 241.2H421.887ZM39.452 358.653C37.7349 359.648 35.693 359.919 33.7755 359.408C31.858 358.897 30.2221 357.646 29.2275 355.928C28.2329 354.211 27.9612 352.169 28.4722 350.252C28.9831 348.335 30.2349 346.699 31.952 345.704L63.306 327.604C64.1563 327.112 65.0952 326.791 66.0691 326.662C67.0431 326.532 68.0331 326.596 68.9825 326.849C69.932 327.102 70.8223 327.539 71.6026 328.136C72.3829 328.733 73.0381 329.478 73.5305 330.328C74.023 331.179 74.3431 332.118 74.4727 333.092C74.6023 334.066 74.5388 335.056 74.2858 336.005C74.0328 336.954 73.5953 337.845 72.9982 338.625C72.4012 339.405 71.6563 340.061 70.806 340.553L39.452 358.653ZM7.97501 256.2C5.98588 256.2 4.07823 255.41 2.67171 254.003C1.26518 252.597 0.475006 250.689 0.475006 248.7C0.475006 246.711 1.26518 244.803 2.67171 243.397C4.07823 241.99 5.98588 241.2 7.97501 241.2H44.181C46.1701 241.2 48.0778 241.99 49.4843 243.397C50.8908 244.803 51.681 246.711 51.681 248.7C51.681 250.689 50.8908 252.597 49.4843 254.003C48.0778 255.41 46.1701 256.2 44.181 256.2H7.97501ZM31.981 151.7C30.2857 150.702 29.0526 149.076 28.5496 147.174C28.0466 145.272 28.3143 143.249 29.2945 141.543C30.2747 139.837 31.8883 138.587 33.7848 138.065C35.6812 137.542 37.7073 137.789 39.423 138.751L70.778 156.851C72.4952 157.838 73.75 159.466 74.2665 161.378C74.7829 163.29 74.5187 165.329 73.532 167.046C72.5453 168.763 70.9168 170.018 69.0049 170.534C67.0929 171.051 65.0541 170.787 63.337 169.8L31.981 151.7ZM104.981 73.195C104.019 71.4793 103.772 69.4532 104.295 67.5568C104.818 65.6603 106.067 64.0467 107.773 63.0665C109.479 62.0863 111.502 61.8186 113.404 62.3216C115.306 62.8246 116.932 64.0577 117.93 65.753L136.03 97.109C136.519 97.9592 136.835 98.8974 136.961 99.8699C137.087 100.842 137.02 101.83 136.764 102.777C136.509 103.724 136.069 104.611 135.47 105.387C134.872 106.164 134.126 106.815 133.276 107.304C132.426 107.793 131.488 108.109 130.515 108.235C129.543 108.361 128.555 108.294 127.608 108.038C126.661 107.783 125.774 107.343 124.998 106.744C124.221 106.146 123.57 105.4 123.081 104.55L104.981 73.195ZM207.431 41.744C207.431 39.7549 208.221 37.8472 209.628 36.4407C211.034 35.0342 212.942 34.244 214.931 34.244C216.92 34.244 218.828 35.0342 220.234 36.4407C221.641 37.8472 222.431 39.7549 222.431 41.744V77.95C222.431 79.9391 221.641 81.8468 220.234 83.2533C218.828 84.6598 216.92 85.45 214.931 85.45C212.942 85.45 211.034 84.6598 209.628 83.2533C208.221 81.8468 207.431 79.9391 207.431 77.95V41.744ZM397.91 345.7C398.76 346.192 399.505 346.848 400.102 347.628C400.699 348.408 401.137 349.299 401.39 350.248C401.643 351.197 401.706 352.187 401.577 353.161C401.447 354.135 401.127 355.074 400.634 355.924C400.142 356.775 399.487 357.52 398.707 358.117C397.926 358.714 397.036 359.151 396.087 359.404C395.137 359.657 394.147 359.721 393.173 359.591C392.199 359.462 391.26 359.141 390.41 358.649L359.056 340.549C357.339 339.554 356.087 337.918 355.576 336.001C355.065 334.084 355.337 332.042 356.332 330.324C357.326 328.607 358.962 327.356 360.879 326.845C362.797 326.334 364.839 326.605 366.556 327.6L397.91 345.7ZM279.128 377.457H149.986C146.842 377.478 143.834 378.74 141.616 380.969C139.398 383.197 138.149 386.211 138.143 389.355C138.136 392.499 139.371 395.519 141.58 397.757C143.788 399.994 146.791 401.269 149.935 401.304H279.179C282.323 401.269 285.326 399.994 287.534 397.757C289.743 395.519 290.978 392.499 290.971 389.355C290.965 386.211 289.716 383.197 287.498 380.969C285.28 378.74 282.272 377.478 279.128 377.457ZM149.986 416.3C148.411 416.286 146.849 416.583 145.389 417.176C143.93 417.769 142.603 418.645 141.484 419.753C140.365 420.862 139.477 422.181 138.871 423.635C138.265 425.089 137.953 426.648 137.953 428.224C137.953 429.799 138.265 431.358 138.871 432.812C139.477 434.266 140.365 435.585 141.484 436.694C142.603 437.802 143.93 438.678 145.389 439.271C146.849 439.864 148.411 440.161 149.986 440.147H279.128C280.703 440.161 282.265 439.864 283.725 439.271C285.184 438.678 286.511 437.802 287.63 436.694C288.749 435.585 289.637 434.266 290.243 432.812C290.849 431.358 291.161 429.799 291.161 428.224C291.161 426.648 290.849 425.089 290.243 423.635C289.637 422.181 288.749 420.862 287.63 419.753C286.511 418.645 285.184 417.769 283.725 417.176C282.265 416.583 280.703 416.286 279.128 416.3H149.986Z" fill="black"/>
</svg>
