<svg width="480" height="448" viewBox="0 0 480 448" fill="none" xmlns="http://www.w3.org/2000/svg">
<path fill-rule="evenodd" clip-rule="evenodd" d="M173.696 320H160C155.757 320 151.687 321.686 148.686 324.686C145.686 327.687 144 331.757 144 336C144 340.243 145.686 344.313 148.686 347.314C151.687 350.314 155.757 352 160 352H176V368H160C155.757 368 151.687 369.686 148.686 372.686C145.686 375.687 144 379.757 144 384C144 388.243 145.686 392.313 148.686 395.314C151.687 398.314 155.757 400 160 400H192V400.032C192 412.754 197.054 424.955 206.049 433.951C215.045 442.946 227.246 448 239.968 448H240C252.73 448 264.939 442.943 273.941 433.941C282.943 424.939 288 412.73 288 400H320C324.243 400 328.313 398.314 331.314 395.314C334.314 392.313 336 388.243 336 384C336 379.757 334.314 375.687 331.314 372.686C328.313 369.686 324.243 368 320 368H304.048C304.064 363.248 304.112 357.76 304.16 352H320C324.243 352 328.313 350.314 331.314 347.314C334.314 344.313 336 340.243 336 336C336 331.757 334.314 327.687 331.314 324.686C328.313 321.686 324.243 320 320 320H306.704C309.903 310.114 316.254 301.549 324.784 295.616C367.408 265.984 400 217.536 400 163.2C400 73.024 328.208 0 240 0C151.792 0 80 73.024 80 163.2C80 217.536 112.576 265.984 155.44 295.328C164.061 301.332 170.475 310 173.696 320ZM208 368V352H272.16C272.112 357.776 272.064 363.248 272.048 368H208ZM256 320H224V193.04C220.256 190.883 216.989 187.987 214.4 184.528L192.768 155.696L173.312 184.88C172.146 186.628 170.647 188.13 168.9 189.298C167.154 190.467 165.195 191.281 163.134 191.692C161.073 192.104 158.952 192.105 156.89 191.697C154.829 191.289 152.868 190.478 151.12 189.312C149.372 188.146 147.87 186.647 146.702 184.9C145.533 183.154 144.719 181.195 144.308 179.134C143.477 174.972 144.333 170.651 146.688 167.12L166.144 137.936C168.984 133.679 172.803 130.164 177.282 127.688C181.761 125.212 186.768 123.846 191.883 123.705C196.999 123.564 202.074 124.652 206.682 126.877C211.291 129.103 215.298 132.401 218.368 136.496L240 165.328L261.632 136.496C264.698 132.395 268.704 129.091 273.313 126.861C277.922 124.631 282.999 123.54 288.117 123.681C293.235 123.822 298.245 125.191 302.724 127.672C307.203 130.152 311.021 133.672 313.856 137.936L333.312 167.12C334.478 168.868 335.289 170.829 335.697 172.89C336.105 174.952 336.104 177.073 335.692 179.134C335.281 181.195 334.467 183.154 333.298 184.9C332.13 186.647 330.628 188.146 328.88 189.312C327.132 190.478 325.171 191.289 323.11 191.697C321.048 192.105 318.927 192.104 316.866 191.692C314.805 191.281 312.846 190.467 311.1 189.298C309.353 188.13 307.854 186.628 306.688 184.88L287.232 155.696L265.6 184.528C263.011 187.987 259.744 190.883 256 193.04V320ZM461.088 225.696L429.088 209.696C427.202 208.679 425.131 208.051 422.998 207.85C420.864 207.648 418.712 207.877 416.669 208.524C414.626 209.17 412.734 210.22 411.104 211.611C409.475 213.002 408.141 214.707 407.183 216.623C406.225 218.54 405.661 220.63 405.526 222.768C405.39 224.906 405.686 227.05 406.395 229.072C407.104 231.095 408.212 232.954 409.653 234.539C411.094 236.125 412.839 237.405 414.784 238.304L446.784 254.304C448.67 255.321 450.741 255.949 452.874 256.15C455.008 256.352 457.16 256.123 459.203 255.476C461.246 254.83 463.138 253.78 464.768 252.389C466.397 250.998 467.731 249.293 468.689 247.377C469.647 245.46 470.211 243.37 470.346 241.232C470.482 239.094 470.186 236.95 469.477 234.928C468.768 232.905 467.66 231.046 466.219 229.461C464.778 227.875 463.033 226.595 461.088 225.696ZM33.216 254.304L65.216 238.304C67.1613 237.405 68.9062 236.125 70.3473 234.539C71.7884 232.954 72.8962 231.095 73.6052 229.072C74.3141 227.05 74.6097 224.906 74.4743 222.768C74.3389 220.63 73.7754 218.54 72.8171 216.623C71.8588 214.707 70.5253 213.002 68.8958 211.611C67.2662 210.22 65.3738 209.17 63.3307 208.524C61.2877 207.877 59.1357 207.648 57.0024 207.85C54.8691 208.051 52.798 208.679 50.912 209.696L18.912 225.696C16.9668 226.595 15.2218 227.875 13.7807 229.461C12.3396 231.046 11.2318 232.905 10.5228 234.928C9.81388 236.95 9.51834 239.094 9.65372 241.232C9.7891 243.37 10.3526 245.46 11.3109 247.377C12.2692 249.293 13.6027 250.998 15.2322 252.389C16.8618 253.78 18.7542 254.83 20.7973 255.476C22.8403 256.123 24.9923 256.352 27.1256 256.15C29.2589 255.949 31.33 255.321 33.216 254.304ZM16 176H48C52.2435 176 56.3131 174.314 59.3137 171.314C62.3143 168.313 64 164.243 64 160C64 155.757 62.3143 151.687 59.3137 148.686C56.3131 145.686 52.2435 144 48 144H16C11.7565 144 7.68687 145.686 4.68629 148.686C1.68571 151.687 0 155.757 0 160C0 164.243 1.68571 168.313 4.68629 171.314C7.68687 174.314 11.7565 176 16 176ZM464 144H432C427.757 144 423.687 145.686 420.686 148.686C417.686 151.687 416 155.757 416 160C416 164.243 417.686 168.313 420.686 171.314C423.687 174.314 427.757 176 432 176H464C468.243 176 472.313 174.314 475.314 171.314C478.314 168.313 480 164.243 480 160C480 155.757 478.314 151.687 475.314 148.686C472.313 145.686 468.243 144 464 144ZM18.912 94.304L50.912 110.304C52.798 111.321 54.8691 111.949 57.0024 112.15C59.1357 112.352 61.2877 112.123 63.3307 111.476C65.3738 110.83 67.2662 109.78 68.8958 108.389C70.5253 106.998 71.8588 105.293 72.8171 103.377C73.7754 101.46 74.3389 99.3705 74.4743 97.232C74.6097 95.0935 74.3141 92.9496 73.6052 90.9275C72.8962 88.9054 71.7884 87.0463 70.3473 85.4605C68.9062 83.8748 67.1613 82.5946 65.216 81.696L33.216 65.696C31.33 64.679 29.2589 64.0511 27.1256 63.8497C24.9923 63.6483 22.8403 63.8775 20.7973 64.5236C18.7542 65.1697 16.8618 66.2196 15.2322 67.611C13.6027 69.0024 12.2692 70.7069 11.3109 72.6235C10.3526 74.54 9.7891 76.6295 9.65372 78.768C9.51834 80.9065 9.81388 83.0504 10.5228 85.0725C11.2318 87.0946 12.3396 88.9537 13.7807 90.5395C15.2218 92.1252 16.9668 93.4054 18.912 94.304ZM446.784 65.696L414.784 81.696C412.839 82.5946 411.094 83.8748 409.653 85.4605C408.212 87.0463 407.104 88.9054 406.395 90.9275C405.686 92.9496 405.39 95.0935 405.526 97.232C405.661 99.3705 406.225 101.46 407.183 103.377C408.141 105.293 409.475 106.998 411.104 108.389C412.734 109.78 414.626 110.83 416.669 111.476C418.712 112.123 420.864 112.352 422.998 112.15C425.131 111.949 427.202 111.321 429.088 110.304L461.088 94.304C463.033 93.4054 464.778 92.1252 466.219 90.5395C467.66 88.9537 468.768 87.0946 469.477 85.0725C470.186 83.0504 470.482 80.9065 470.346 78.768C470.211 76.6295 469.647 74.54 468.689 72.6235C467.731 70.7069 466.397 69.0024 464.768 67.611C463.138 66.2196 461.246 65.1697 459.203 64.5236C457.16 63.8775 455.008 63.6483 452.874 63.8497C450.741 64.0511 448.67 64.679 446.784 65.696Z" fill="black"/>
</svg>
