<svg width="380" height="448" viewBox="0 0 380 448" fill="none" xmlns="http://www.w3.org/2000/svg">
<path d="M119.583 47.976H244.039C250.401 47.976 256.502 45.4487 261.001 40.9501C265.5 36.4515 268.027 30.35 268.027 23.988C268.027 17.626 265.5 11.5245 261.001 7.02592C256.502 2.5273 250.401 0 244.039 0H119.583C113.297 0.114802 107.307 2.69257 102.902 7.1787C98.4971 11.6648 96.0291 17.7008 96.0291 23.988C96.0291 30.2752 98.4971 36.3112 102.902 40.7973C107.307 45.2834 113.297 47.8612 119.583 47.976ZM380.775 297.376L345.079 276.776L309.463 297.376V338.56L345.079 359.16L380.775 338.56V297.376ZM265.687 373.128V414.32L301.303 434.92L336.999 414.32V373.128L301.303 352.536L265.687 373.128ZM388.855 352.536L353.159 373.128V414.32L388.855 434.92L424.471 414.32V373.128L388.855 352.536ZM144.863 224.928C156.788 225.248 168.581 222.375 179.023 216.608C199.591 203.68 240.735 203.56 261.487 216.608C269.018 220.744 277.27 223.405 285.799 224.448L253.495 151.84V63C250.399 63.75 247.224 64.126 244.039 64.12H119.583C116.401 64.1157 113.23 63.7398 110.135 63V89.808H153.095C155.238 89.808 157.293 90.6593 158.808 92.1746C160.324 93.6899 161.175 95.7451 161.175 97.888C161.175 100.031 160.324 102.086 158.808 103.601C157.293 105.117 155.238 105.968 153.095 105.968H110.135V129.624H153.095C155.238 129.624 157.293 130.475 158.808 131.991C160.324 133.506 161.175 135.561 161.175 137.704C161.175 139.847 160.324 141.902 158.808 143.417C157.293 144.933 155.238 145.784 153.095 145.784H110.135V151.84L85.255 207.888C94.1464 209.417 102.735 212.361 110.695 216.608C121.139 222.378 132.936 225.25 144.863 224.928Z" fill="black"/>
<path d="M249.535 418.928V368.448C249.544 367.039 249.922 365.656 250.631 364.438C251.34 363.22 252.355 362.209 253.575 361.504L293.311 338.48V292.688C293.31 291.592 293.539 290.507 293.984 289.505C294.429 288.503 295.08 287.606 295.895 286.872C296.735 285.72 308.695 279.488 309.863 278.472L293.143 241C262.071 242.016 252.799 222.648 220.295 222.824C183.967 223.168 183.791 241.384 144.863 241.08C111.071 241.56 105.727 226.584 78.391 223.232L3.44704 391.872C0.744419 397.945 -0.398257 404.597 0.122786 411.224C0.64383 417.851 2.81208 424.242 6.43063 429.818C10.0492 435.394 15.0034 439.978 20.8433 443.153C26.6832 446.329 33.2238 447.995 39.871 448H291.695L263.751 431.84C259.351 428.744 249.055 425.704 249.535 418.928ZM118.935 375.472C112.252 375.472 105.842 372.817 101.116 368.091C96.39 363.365 93.735 356.955 93.735 350.272C93.735 343.589 96.39 337.179 101.116 332.453C105.842 327.727 112.252 325.072 118.935 325.072C125.618 325.072 132.028 327.727 136.754 332.453C141.48 337.179 144.135 343.589 144.135 350.272C144.135 356.955 141.48 363.365 136.754 368.091C132.028 372.817 125.618 375.472 118.935 375.472ZM211.415 349.792C202.472 349.792 193.895 346.239 187.571 339.916C181.248 333.592 177.695 325.015 177.695 316.072C177.695 307.129 181.248 298.552 187.571 292.228C193.895 285.905 202.472 282.352 211.415 282.352C220.358 282.352 228.935 285.905 235.259 292.228C241.582 298.552 245.135 307.129 245.135 316.072C245.135 325.015 241.582 333.592 235.259 339.916C228.935 346.239 220.358 349.792 211.415 349.792Z" fill="black"/>
<path d="M109.895 350.272C109.895 352.671 110.848 354.971 112.544 356.667C114.24 358.363 116.54 359.316 118.939 359.316C121.338 359.316 123.638 358.363 125.334 356.667C127.03 354.971 127.983 352.671 127.983 350.272C127.983 347.873 127.03 345.573 125.334 343.877C123.638 342.181 121.338 341.228 118.939 341.228C116.54 341.228 114.24 342.181 112.544 343.877C110.848 345.573 109.895 347.873 109.895 350.272ZM193.887 316.112C193.887 320.761 195.734 325.219 199.021 328.506C202.308 331.793 206.766 333.64 211.415 333.64C216.064 333.64 220.522 331.793 223.809 328.506C227.096 325.219 228.943 320.761 228.943 316.112C228.943 311.463 227.096 307.005 223.809 303.718C220.522 300.431 216.064 298.584 211.415 298.584C206.766 298.584 202.308 300.431 199.021 303.718C195.734 307.005 193.887 311.463 193.887 316.112Z" fill="black"/>
</svg>
