<svg width="500" height="498" viewBox="0 0 500 498" fill="none" xmlns="http://www.w3.org/2000/svg">
<path d="M472 0.535004H28C12.696 0.535004 0.218994 13.012 0.218994 28.316V368.262C0.218994 383.566 12.696 396.042 28 396.042H182.888L164.563 444.536H163.832C140.097 444.536 120.455 462.325 117.482 485.281H92.382C89.019 485.281 86.29 488.01 86.29 491.373C86.29 494.736 89.019 497.465 92.382 497.465H407.618C410.981 497.465 413.71 494.736 413.71 491.373C413.71 488.01 410.981 485.281 407.618 485.281H382.518C379.545 462.326 359.904 444.536 336.168 444.536H335.437L317.112 396.042H472C487.304 396.042 499.781 383.565 499.781 368.262V28.316C499.781 13.012 487.304 0.535004 472 0.535004ZM322.375 444.536H177.625L195.95 396.042H304.05L322.375 444.536ZM227.386 363.095C227.387 361.479 228.029 359.93 229.171 358.788C230.313 357.646 231.862 357.004 233.478 357.003H266.522C269.885 357.003 272.614 359.732 272.614 363.095C272.614 366.458 269.885 369.187 266.522 369.187H233.478C231.862 369.186 230.313 368.544 229.171 367.402C228.029 366.26 227.387 364.711 227.386 363.095ZM487.596 330.148H12.404V28.316C12.404 19.738 19.422 12.72 28 12.72H472C480.578 12.72 487.596 19.738 487.596 28.316V330.148Z" fill="black"/>
<path d="M397.285 259.674C397.285 277.853 382.518 292.621 364.387 292.621C346.257 292.621 331.489 277.854 331.489 259.674C331.489 252.607 333.78 246.027 337.63 240.666L298.25 199.775C290.842 209.035 280.022 215.42 267.691 217.077L258.967 260.551C262.232 262.208 265.156 264.596 267.35 267.764C274.466 278.048 271.931 292.133 261.599 299.297C251.315 306.413 237.181 303.781 230.066 293.546C222.95 283.311 225.533 269.177 235.817 262.061C239.18 259.722 243.03 258.454 247.027 258.162L255.264 217.076C250.304 216.453 245.48 215.02 240.984 212.836L197.997 254.214C201.473 259.441 203.321 265.58 203.309 271.857C203.309 289.695 188.785 304.219 170.899 304.219C153.061 304.219 138.537 289.695 138.537 271.857C138.537 254.019 153.061 239.495 170.899 239.495C177.868 239.495 184.253 241.737 189.565 245.441L230.554 205.964C223.487 199.872 218.321 191.732 215.835 182.472L172.995 175.892C171.338 179.889 168.755 183.544 165.051 186.322C153.89 194.851 137.904 192.658 129.424 181.497C120.895 170.336 122.991 154.399 134.2 145.87C145.41 137.341 161.298 139.534 169.827 150.695C172.849 154.643 174.457 159.224 174.847 163.854L214.227 169.897C214.307 160.69 217.086 151.709 222.22 144.066L183.133 103.467C177.674 107.074 171.192 109.218 164.223 109.218C145.362 109.218 130.009 93.866 130.009 75.004C130.009 56.191 145.361 40.839 164.223 40.839C183.036 40.839 198.339 56.191 198.339 75.004C198.339 82.461 195.902 89.333 191.857 94.986L230.311 134.902C238.645 127.64 249.514 123.156 261.406 123.156C270.715 123.156 279.39 125.934 286.701 130.613L328.274 90.599C324.607 85.0834 322.656 78.6046 322.669 71.981C322.669 53.412 337.778 38.255 356.396 38.255C374.965 38.255 390.122 53.412 390.122 71.981C390.122 90.55 374.965 105.659 356.396 105.659C349.345 105.667 342.472 103.449 336.755 99.323L296.108 138.508C303.808 146.891 308.585 158.052 308.585 170.382C308.585 176.962 307.22 183.249 304.735 188.951L346.357 232.182C351.705 228.644 357.978 226.762 364.39 226.772C382.518 226.776 397.285 241.543 397.285 259.674Z" fill="black"/>
</svg>
