<svg width="458" height="468" viewBox="0 0 458 468" fill="none" xmlns="http://www.w3.org/2000/svg">
<path fill-rule="evenodd" clip-rule="evenodd" d="M132.04 157.71C133.018 157.07 134.161 156.73 135.33 156.73H238.61C255.37 156.73 269.01 143.09 269.01 126.32V30.41C269.01 13.64 255.37 0 238.61 0H31.07C14.3 0 0.660004 13.64 0.660004 30.41V126.32C0.660004 143.09 14.3 156.73 31.07 156.73H36.56C39.87 156.73 42.56 159.41 42.56 162.73V201.86C42.56 204.87 44.02 207.32 46.67 208.75C49.32 210.19 52.17 210.07 54.69 208.41L132.04 157.71ZM191.46 85.22C190.386 84.1505 189.534 82.8788 188.954 81.4782C188.373 80.0776 188.077 78.576 188.08 77.06C188.08 73.88 189.37 70.99 191.46 68.9C193.55 66.81 196.43 65.52 199.62 65.52C202.81 65.52 205.69 66.81 207.78 68.9C209.87 70.99 211.16 73.88 211.16 77.06C211.16 80.25 209.87 83.14 207.78 85.22C205.69 87.31 202.81 88.61 199.62 88.61C196.43 88.61 193.54 87.31 191.46 85.22ZM143 85.22C141.93 86.2943 140.658 87.1467 139.258 87.7285C137.858 88.3102 136.356 88.6098 134.84 88.61C131.65 88.61 128.77 87.31 126.68 85.22C125.606 84.1505 124.754 82.8788 124.174 81.4782C123.593 80.0776 123.297 78.576 123.3 77.06C123.3 73.88 124.59 70.99 126.68 68.9C128.77 66.81 131.65 65.52 134.84 65.52C138.03 65.52 140.91 66.81 143 68.9C145.09 70.99 146.38 73.88 146.38 77.06C146.38 80.25 145.09 83.14 143 85.22ZM78.23 68.9C80.32 70.99 81.61 73.88 81.61 77.06C81.61 80.25 80.32 83.14 78.23 85.22C77.1605 86.295 75.8889 87.148 74.4885 87.7298C73.0881 88.3116 71.5865 88.6107 70.07 88.61C66.89 88.61 64 87.31 61.91 85.22C60.8356 84.1505 59.9837 82.8788 59.4035 81.4782C58.8234 80.0776 58.5265 78.576 58.53 77.06C58.53 73.88 59.82 70.99 61.91 68.9C64 66.81 66.89 65.52 70.07 65.52C73.25 65.52 76.14 66.81 78.23 68.9ZM281.02 126.32C281.02 149.7 262 168.73 238.62 168.73H188.98V171.16C188.98 187.92 202.62 201.56 219.38 201.56H322.66C323.83 201.56 324.97 201.91 325.95 202.55L403.31 253.25C405.83 254.9 408.68 255.02 411.33 253.59C413.98 252.16 415.44 249.71 415.44 246.69V207.56C415.44 204.25 418.13 201.56 421.44 201.56H426.93C443.7 201.56 457.34 187.92 457.34 171.16V75.25C457.34 58.48 443.7 44.84 426.93 44.84H281.02V126.32ZM331.32 113.74C333.41 115.83 334.7 118.71 334.7 121.9C334.7 125.09 333.41 127.97 331.32 130.06C329.23 132.15 326.35 133.44 323.16 133.44C319.97 133.44 317.09 132.15 315 130.06C312.91 127.97 311.62 125.09 311.62 121.9C311.62 118.71 312.91 115.83 315 113.74C317.09 111.65 319.98 110.36 323.16 110.36C326.35 110.36 329.23 111.65 331.32 113.74ZM387.93 133.44C384.75 133.44 381.86 132.15 379.77 130.06C377.68 127.97 376.39 125.09 376.39 121.9C376.39 118.71 377.68 115.83 379.77 113.74C381.86 111.65 384.75 110.36 387.93 110.36C391.12 110.36 394.01 111.65 396.1 113.74C397.172 114.811 398.023 116.083 398.603 117.484C399.183 118.884 399.482 120.384 399.482 121.9C399.482 123.416 399.183 124.916 398.603 126.316C398.023 127.717 397.172 128.989 396.1 130.06C395.028 131.134 393.754 131.985 392.352 132.565C390.95 133.145 389.447 133.443 387.93 133.44ZM398.43 316.31C398.43 340.15 379.03 359.55 355.18 359.55C331.34 359.55 311.94 340.15 311.94 316.31C311.94 292.46 331.34 273.06 355.18 273.06C379.03 273.06 398.43 292.46 398.43 316.31ZM437.11 439.12C437.97 446.79 435.8 453.59 430.66 459.34C425.52 465.09 419.01 468 411.29 468H322.48C323.18 467.31 323.87 466.6 324.55 465.85C332.82 456.6 336.46 445.18 335.07 432.84C333 414.42 325.46 397.12 313.52 383.04C322.913 378.615 333.167 376.32 343.55 376.32H366.82C402.86 376.32 433.08 403.32 437.11 439.12ZM315.59 457.86C309.57 464.59 301.94 468 292.91 468H165.09C156.06 468 148.43 464.59 142.41 457.86C136.39 451.12 133.85 443.16 134.86 434.18C139.49 392.98 174.27 361.92 215.75 361.92H242.25C283.73 361.92 318.51 392.98 323.14 434.18C324.15 443.16 321.61 451.12 315.59 457.86ZM178.91 294.39C178.91 266.77 201.38 244.3 229 244.3C256.62 244.3 279.09 266.77 279.09 294.39C279.09 322.01 256.62 344.48 229 344.48C201.38 344.48 178.91 322.01 178.91 294.39ZM122.93 432.84C121.54 445.18 125.18 456.59 133.45 465.85C134.12 466.6 134.82 467.31 135.52 468H46.71C39 468 32.48 465.09 27.34 459.34C22.2 453.59 20.03 446.79 20.89 439.12C24.92 403.32 55.14 376.32 91.18 376.32H114.45C124.87 376.32 135.12 378.63 144.48 383.04C132.55 397.12 125 414.42 122.93 432.84ZM59.58 316.31C59.58 292.46 78.98 273.06 102.82 273.06C126.66 273.06 146.07 292.46 146.07 316.31C146.07 340.15 126.67 359.55 102.82 359.55C78.98 359.55 59.58 340.15 59.58 316.31Z" fill="black"/>
</svg>
