<svg width="480" height="480" viewBox="0 0 480 480" fill="none" xmlns="http://www.w3.org/2000/svg">
<path d="M240 0C192.533 0 146.131 14.0758 106.663 40.4473C67.1955 66.8188 36.4341 104.302 18.269 148.156C0.103991 192.01 -4.64881 240.266 4.61164 286.822C13.8721 333.377 36.7299 376.141 70.2945 409.706C103.859 443.27 146.623 466.128 193.178 475.388C239.734 484.649 287.99 479.896 331.844 461.731C375.698 443.566 413.181 412.805 439.553 373.337C465.924 333.869 480 287.468 480 240C479.922 176.372 454.611 115.373 409.619 70.3809C364.627 25.3891 303.628 0.0783296 240 0ZM338.64 310.72C339.686 311.81 340.263 313.266 340.248 314.776C340.233 316.287 339.627 317.731 338.56 318.8L320.4 336.88C319.876 337.421 319.248 337.852 318.554 338.146C317.86 338.44 317.114 338.591 316.36 338.591C315.606 338.591 314.86 338.44 314.166 338.146C313.472 337.852 312.844 337.421 312.32 336.88L289.2 313.76L265.92 336.88C265.399 337.412 264.776 337.835 264.09 338.124C263.403 338.412 262.665 338.561 261.92 338.561C261.175 338.561 260.438 338.412 259.751 338.124C259.064 337.835 258.442 337.412 257.92 336.88L239.76 318.8C239.227 318.271 238.805 317.641 238.516 316.948C238.228 316.254 238.079 315.511 238.079 314.76C238.079 314.009 238.228 313.266 238.516 312.572C238.805 311.879 239.227 311.249 239.76 310.72L262.88 287.44L239.76 264.32C239.227 263.791 238.805 263.161 238.516 262.468C238.228 261.774 238.079 261.031 238.079 260.28C238.079 259.529 238.228 258.786 238.516 258.092C238.805 257.399 239.227 256.769 239.76 256.24L257.92 238C258.438 237.468 259.061 237.051 259.75 236.776C260.439 236.5 261.179 236.372 261.92 236.4C262.659 236.391 263.393 236.527 264.079 236.802C264.766 237.076 265.391 237.484 265.92 238L289.2 261.28L312.32 238C312.854 237.467 313.492 237.05 314.193 236.775C314.895 236.5 315.647 236.372 316.4 236.4C317.89 236.396 319.324 236.969 320.4 238L338.64 256.24C339.693 257.308 340.295 258.74 340.32 260.24C340.312 261.003 340.152 261.756 339.849 262.457C339.547 263.157 339.109 263.79 338.56 264.32L315.36 287.44L338.64 310.72ZM400 152.88C399.994 154.384 399.393 155.826 398.329 156.889C397.266 157.953 395.825 158.554 394.32 158.56H225.36L146.8 354.96C146.379 355.977 145.677 356.854 144.776 357.487C143.875 358.119 142.813 358.482 141.713 358.532C140.613 358.583 139.521 358.319 138.566 357.771C137.611 357.223 136.832 356.415 136.32 355.44L92.4001 267.52H85.6801C84.9289 267.515 84.1862 267.362 83.4942 267.069C82.8022 266.777 82.1746 266.351 81.6471 265.816C81.1197 265.282 80.7028 264.648 80.4202 263.952C80.1376 263.256 79.9948 262.511 80.0001 261.76V236.08C79.9959 235.333 80.1399 234.592 80.4238 233.901C80.7078 233.21 81.126 232.582 81.6543 232.054C82.1826 231.526 82.8104 231.108 83.5014 230.824C84.1925 230.54 84.933 230.396 85.6801 230.4H111.84C112.888 230.396 113.916 230.687 114.807 231.238C115.698 231.79 116.416 232.58 116.88 233.52L138.32 276.16L198.72 125.04C199.152 123.973 199.893 123.06 200.848 122.418C201.804 121.777 202.929 121.436 204.08 121.44H394.32C395.071 121.445 395.814 121.598 396.506 121.891C397.198 122.183 397.826 122.609 398.353 123.144C398.881 123.678 399.297 124.312 399.58 125.008C399.863 125.704 400.005 126.449 400 127.2V152.88Z" fill="black"/>
</svg>
