<svg width="512" height="500" viewBox="0 0 512 500" fill="none" xmlns="http://www.w3.org/2000/svg">
<path d="M421.333 0H90.6667C40.5973 0 0 40.5973 0 90.6667V408.533C0 458.603 40.5973 499.2 90.6667 499.2H421.333C471.403 499.2 512 458.603 512 408.533V90.6667C512 40.5973 471.403 0 421.333 0ZM352.299 141.035C347.136 141.035 344.555 137.152 342.933 131.669C337.451 110.976 330.325 104.853 326.144 104.853C321.941 104.853 315.477 112.619 308.373 128.768C298.987 149.12 292.693 171.285 286.869 192.619L323.819 192.576C326.08 197.099 324.245 206.464 318.741 209.045H282.219C270.272 249.109 260.203 287.723 248.256 325.525C241.472 346.859 234.048 367.211 224.661 380.117C214.315 394.645 194.944 408.555 171.669 408.555C155.2 408.555 139.029 400.811 139.029 383.68C139.029 373.013 150.016 363.008 158.741 363.008C162.496 362.859 166.016 364.864 167.787 368.171C175.872 382.699 183.616 391.104 187.179 391.104C190.741 391.104 193.643 386.261 199.467 365.269L241.877 209.067L211.371 209.024C209.109 202.24 212.331 194.112 216.192 192.491H246.571C252.395 173.76 259.243 154.603 268.928 137.472C283.456 111.317 306.731 90.624 338.709 90.624C362.944 90.624 372.971 102.272 372.971 117.12C372.651 132.971 358.763 141.035 352.299 141.035Z" fill="black"/>
</svg>
