<svg width="513" height="500" viewBox="0 0 513 500" fill="none" xmlns="http://www.w3.org/2000/svg">
<path fill-rule="evenodd" clip-rule="evenodd" d="M256 0C114.624 0 0 114.603 0 256C0 369.109 73.344 465.067 175.061 498.923C187.861 501.291 192.555 493.376 192.555 486.613C192.555 480.512 192.32 460.352 192.213 438.955C121.003 454.443 105.963 408.747 105.963 408.747C94.3147 379.157 77.5467 371.285 77.5467 371.285C54.3147 355.392 79.296 355.733 79.296 355.733C105.003 357.547 118.528 382.123 118.528 382.123C141.355 421.248 178.411 409.941 193.024 403.392C195.328 386.837 201.963 375.552 209.28 369.152C152.427 362.688 92.6507 340.736 92.6507 242.645C92.6507 214.699 102.656 191.851 119.04 173.931C116.373 167.467 107.605 141.44 121.515 106.176C121.515 106.176 143.019 99.3067 191.936 132.416C212.818 126.732 234.359 123.834 256 123.797C277.76 123.904 299.669 126.741 320.128 132.416C368.981 99.2853 390.464 106.176 390.464 106.176C404.395 141.44 395.627 167.467 392.981 173.931C409.387 191.851 419.328 214.699 419.328 242.645C419.328 340.971 359.445 362.624 302.443 368.96C311.616 376.896 319.808 392.491 319.808 416.363C319.808 450.624 319.509 478.187 319.509 486.613C319.509 493.419 324.117 501.419 337.088 498.901C438.763 465.003 512.021 369.088 512.021 256.021C512 114.624 397.376 0 256 0Z" fill="black"/>
<path d="M96.96 367.573C96.4053 368.853 94.4 369.237 92.5653 368.363C90.7093 367.531 89.664 365.781 90.2613 364.523C90.816 363.221 92.8213 362.859 94.6773 363.733C96.5333 364.544 97.6 366.293 96.96 367.573ZM107.328 379.136C106.112 380.267 103.723 379.733 102.101 377.963C100.416 376.171 100.117 373.781 101.355 372.651C102.613 371.52 104.917 372.053 106.603 373.845C108.288 375.616 108.608 377.984 107.328 379.136ZM117.419 393.877C115.84 394.965 113.28 393.941 111.701 391.68C110.123 389.397 110.123 386.667 111.744 385.579C113.323 384.491 115.861 385.472 117.461 387.733C119.019 390.037 119.019 392.768 117.419 393.877ZM131.243 408.128C129.835 409.685 126.848 409.259 124.672 407.147C122.432 405.077 121.813 402.155 123.221 400.597C124.651 399.04 127.659 399.488 129.856 401.579C132.075 403.648 132.736 406.592 131.243 408.128ZM150.336 416.384C149.717 418.389 146.837 419.307 143.936 418.453C141.035 417.579 139.136 415.232 139.733 413.205C140.331 411.179 143.232 410.24 146.155 411.157C149.035 412.011 150.933 414.357 150.336 416.384ZM171.285 417.92C171.349 420.032 168.896 421.781 165.845 421.824C162.795 421.888 160.299 420.181 160.277 418.112C160.277 415.979 162.688 414.251 165.739 414.187C168.789 414.123 171.285 415.829 171.285 417.92ZM190.784 414.613C191.147 416.661 189.035 418.795 186.005 419.349C183.04 419.904 180.288 418.624 179.904 416.576C179.541 414.464 181.696 412.352 184.661 411.797C187.669 411.264 190.4 412.501 190.784 414.613Z" fill="black"/>
</svg>
