<svg width="499" height="512" viewBox="0 0 499 512" fill="none" xmlns="http://www.w3.org/2000/svg">
<path d="M259.648 304.32V234.368H495.36C497.664 246.549 498.859 260.971 498.859 276.587C498.859 329.067 484.523 393.963 438.272 440.192C393.301 487.019 335.851 512 259.733 512C118.635 512 0 397.077 0 256C0 114.923 118.635 0 259.733 0C337.792 0 393.387 30.6347 435.157 70.5493L385.792 119.893C355.84 91.7973 315.243 69.952 259.648 69.952C156.629 69.952 76.0533 152.981 76.0533 256C76.0533 359.019 156.629 442.048 259.648 442.048C326.464 442.048 364.523 415.211 388.907 390.827C408.683 371.051 421.696 342.805 426.816 304.235L259.648 304.32Z" fill="black"/>
</svg>
