<svg width="88" height="89" viewBox="0 0 88 89" fill="none" xmlns="http://www.w3.org/2000/svg">
<path fill-rule="evenodd" clip-rule="evenodd" d="M41.1299 19.9063C41.0803 20.6523 41.1818 21.4008 41.4283 22.1067C41.6749 22.8125 42.0615 23.4614 42.5649 24.0143L46.3499 22.1933C49.1397 20.8503 51.2818 18.4542 52.3049 15.5319C53.328 12.6096 53.1483 9.40058 51.8054 6.61077C50.4625 3.82096 48.0663 1.67888 45.144 0.655777C42.2217 -0.367327 39.0127 -0.187655 36.2229 1.15527L25.2759 6.42727C22.5022 7.77442 20.3715 10.161 19.3463 13.0692C18.3212 15.9774 18.4841 19.1725 19.7999 21.9613L19.8199 22.0013C21.1688 24.7825 23.5624 26.9177 26.479 27.9414C29.3956 28.9651 32.5987 28.7943 35.3899 27.4663C35.1048 27.0177 34.846 26.5529 34.6149 26.0743C34.2171 25.2474 33.9051 24.3818 33.6839 23.4913L33.5279 23.5663L33.4759 23.5893C31.7178 24.4131 29.7051 24.508 27.8773 23.8531C26.0495 23.1982 24.555 21.8468 23.7201 20.0939C22.8852 18.341 22.7777 16.329 23.421 14.4971C24.0644 12.6652 25.4063 11.1622 27.1539 10.3163L38.0999 5.04927C39.4114 4.42351 40.8785 4.19893 42.3172 4.40369C43.7559 4.60845 45.102 5.23344 46.1869 6.20027L46.1969 6.20927C47.0932 7.01704 47.7771 8.03285 48.1882 9.1672C48.5994 10.3016 48.7253 11.5196 48.5548 12.7141C48.3842 13.9085 47.9225 15.0427 47.2104 16.0167C46.4982 16.9907 45.5574 17.7746 44.4709 18.2993L41.1299 19.9063ZM54.3159 8.44027C54.0949 7.54901 53.7829 6.6828 53.3849 5.85527C53.154 5.3765 52.8953 4.9117 52.6099 4.46327C55.3969 3.14837 58.5907 2.98875 61.4949 4.01921C64.399 5.04967 66.778 7.18662 68.1129 9.96405C69.4478 12.7415 69.6305 15.9341 68.6209 18.8456C67.6114 21.7571 65.4916 24.1514 62.7239 25.5063L51.7769 30.7743C48.986 32.1049 45.7822 32.278 42.8642 31.2559C39.9461 30.2339 37.5506 28.0995 36.1999 25.3183C35.7116 24.3039 35.3747 23.2234 35.1999 22.1113C35.1999 22.0913 35.1939 22.0703 35.1899 22.0503C34.8133 19.5772 35.237 17.0484 36.3991 14.8331C37.5613 12.6179 39.401 10.832 41.6499 9.73627L45.4349 7.91427C45.9386 8.46794 46.3254 9.11763 46.572 9.82438C46.8186 10.5311 46.9199 11.2804 46.8699 12.0273L43.5699 13.6143L43.5229 13.6353C41.7703 14.4842 40.425 15.9924 39.781 17.8302C39.1369 19.668 39.2466 21.686 40.0859 23.4433C40.5013 24.3083 41.083 25.0831 41.7979 25.7233L41.8089 25.7323C42.8944 26.6994 44.2415 27.3243 45.681 27.5286C47.1204 27.7328 48.5882 27.5073 49.8999 26.8803L60.8469 21.6123C62.5878 20.7703 63.9278 19.2776 64.5779 17.4564C65.228 15.6351 65.1361 13.6313 64.3219 11.8773C64.3043 11.8294 64.2826 11.7833 64.2569 11.7393C63.4034 10.0188 61.912 8.69946 60.1002 8.06218C58.2885 7.4249 56.2996 7.52001 54.5569 8.32727C54.5051 8.34625 54.4553 8.37002 54.4079 8.39827L54.3219 8.44027H54.3159ZM27.3999 78.5543L31.8769 72.9843C32.1672 72.6626 32.3492 72.2579 32.3971 71.8273C32.445 71.3967 32.3564 70.9619 32.1439 70.5843C31.819 70.0158 31.2915 69.5908 30.6669 69.3943C30.2523 69.2692 29.8089 69.2771 29.399 69.417C28.9892 69.557 28.6335 69.8218 28.3819 70.1743L23.9059 75.7443C23.6157 76.0659 23.4337 76.4706 23.3857 76.9011C23.3376 77.3317 23.4258 77.7665 23.6379 78.1443C23.963 78.7124 24.4904 79.137 25.1149 79.3333C25.5294 79.4586 25.9728 79.4509 26.3826 79.3111C26.7925 79.1714 27.1483 78.9067 27.3999 78.5543ZM26.9779 69.1273L22.6719 74.4853C22.4454 74.5637 22.2056 74.5966 21.9664 74.582C21.7272 74.5674 21.4932 74.5056 21.2779 74.4003C20.8403 74.1978 20.456 73.8957 20.1559 73.5183C19.8455 73.1415 19.6301 72.6956 19.5279 72.2183C19.4587 71.8838 19.4657 71.5381 19.5484 71.2067C19.6312 70.8753 19.7875 70.5669 20.0059 70.3043L21.9369 67.9043C22.27 67.3869 22.7329 66.9659 23.2795 66.6832C23.8261 66.4006 24.4372 66.2661 25.0519 66.2933C25.4293 66.3411 25.7908 66.4745 26.1089 66.6833C26.4116 66.8784 26.6679 67.1375 26.8599 67.4423C27.0272 67.6875 27.1263 67.9727 27.147 68.2688C27.1677 68.5649 27.1094 68.8612 26.9779 69.1273ZM0.545899 63.7823L9.4999 67.7213C9.72232 67.8187 9.9743 67.8239 10.2006 67.7358C10.4268 67.6477 10.6089 67.4735 10.7069 67.2513L22.9839 39.3513C23.0813 39.129 23.0865 38.8772 22.9984 38.651C22.9103 38.4249 22.736 38.243 22.5139 38.1453L13.5599 34.2033C13.4499 34.1547 13.3315 34.1284 13.2113 34.1257C13.0912 34.123 12.9716 34.1441 12.8596 34.1876C12.7476 34.2312 12.6453 34.2964 12.5585 34.3796C12.4717 34.4627 12.4022 34.5622 12.3539 34.6723L0.0768992 62.5753C-0.0203195 62.7976 -0.025559 63.0494 0.0623266 63.2756C0.150212 63.5017 0.324073 63.6839 0.545899 63.7823ZM34.2149 83.4773C34.1185 84.1834 34.2975 84.8996 34.7149 85.4773C34.976 85.8694 35.3244 86.1956 35.7329 86.4303C36.1093 86.6475 36.5426 86.7458 36.9759 86.7123C37.4129 86.6401 37.8305 86.4794 38.2031 86.24C38.5758 86.0006 38.8956 85.6877 39.1429 85.3203L39.9999 84.2553C40.3947 83.8019 40.6177 83.2243 40.6299 82.6233C40.6125 82.0699 40.4215 81.536 40.0839 81.0973C39.7274 80.6166 39.262 80.2273 38.7259 79.9613C38.287 79.7246 37.7905 79.6161 37.2929 79.6483L34.2149 83.4773ZM36.0909 78.3433L32.7579 82.4913C32.732 82.5196 32.7076 82.5493 32.6849 82.5803C32.3974 82.9379 32.0053 83.1966 31.5635 83.3203C31.1217 83.4441 30.6523 83.4265 30.2209 83.2703C29.877 83.1565 29.5558 82.9832 29.2719 82.7583C28.9949 82.542 28.7597 82.277 28.5779 81.9763C28.3558 81.6197 28.2547 81.2009 28.2895 80.7823C28.3242 80.3636 28.4931 79.9674 28.7709 79.6523L33.2479 74.0823C33.4756 73.7619 33.7971 73.5201 34.168 73.39C34.5389 73.26 34.941 73.2482 35.3189 73.3563C35.6361 73.4526 35.9292 73.6152 36.1789 73.8333C36.45 74.0655 36.6708 74.3507 36.8279 74.6713C37.0777 75.2687 37.1477 75.926 37.0294 76.5626C36.9111 77.1992 36.6096 77.7875 36.1619 78.2553C36.1366 78.2833 36.1129 78.3126 36.0909 78.3433ZM75.3309 62.7433C75.345 62.7739 75.3574 62.8052 75.3679 62.8373L77.1149 67.3293C77.2054 67.5542 77.3805 67.7347 77.6027 67.8319C77.8248 67.9292 78.0762 67.9354 78.3029 67.8493L87.4189 64.3033C87.6439 64.2128 87.8244 64.0376 87.9216 63.8155C88.0188 63.5934 88.025 63.3419 87.9389 63.1153L76.8889 34.7073C76.8449 34.596 76.7793 34.4945 76.6959 34.4087C76.6125 34.3229 76.5129 34.2544 76.4029 34.2073C76.1811 34.1089 75.9294 34.1024 75.7029 34.1893L66.6559 37.7073C66.6184 37.7256 66.5796 37.7413 66.5399 37.7543C66.3368 37.8499 66.1752 38.0157 66.0849 38.2213C65.9947 38.4268 65.9819 38.658 66.0489 38.8723C66.0663 38.9098 66.081 38.9486 66.0929 38.9883L66.8929 41.0553C66.8989 41.0693 66.9049 41.0843 66.9099 41.0993V41.1053L75.3269 62.7483L75.3309 62.7433ZM37.8649 46.3103L38.3519 45.8363C39.5419 44.6833 40.7159 43.5763 41.6259 42.7803C42.2824 42.1039 43.0786 41.5791 43.9589 41.2423C44.9612 41.0542 45.991 41.0682 46.9879 41.2833H47.0139C48.1139 41.4353 49.5319 41.6753 51.0539 41.9333C53.8389 42.4043 56.9699 42.9333 59.2849 43.1143C60.7257 43.2525 62.1779 43.2125 63.6089 42.9953C64.2744 42.8821 64.93 42.7173 65.5699 42.5023C68.1472 49.1763 70.7426 55.8429 73.3559 62.5023C71.2559 63.2113 70.7359 64.6163 70.1339 66.2623C69.8615 67.248 69.3877 68.1666 68.7424 68.9601C68.0972 69.7535 67.2944 70.4046 66.3849 70.8723L45.0329 53.7203C44.4353 53.1772 43.6857 52.8303 42.8849 52.7263C42.484 52.679 42.0776 52.7176 41.6928 52.8395C41.308 52.9614 40.9535 53.1638 40.6529 53.4333C40.1457 53.9595 39.8199 54.6339 39.7229 55.3583L39.6969 55.4583C39.5972 55.8822 39.5201 56.3112 39.4659 56.7433C39.4049 57.1663 39.3379 57.6283 39.2309 58.1123C39.0951 58.7377 38.9036 59.3499 38.6589 59.9413C38.4526 60.4447 38.1899 60.923 37.8759 61.3673C37.5241 61.8614 37.0929 62.2939 36.5999 62.6473C36.2033 62.9368 35.749 63.1377 35.2679 63.2363C34.822 63.3022 34.3673 63.278 33.9309 63.1653C33.5496 63.0699 33.1762 62.9455 32.8139 62.7933C32.7569 62.7703 32.7569 62.7703 32.7059 61.4183V61.4003C32.6329 59.4623 32.4889 55.6003 32.4699 53.5913C32.4071 52.9957 32.4705 52.3937 32.6559 51.8243C33.0599 51.1623 33.5597 50.5639 34.1389 50.0483C35.0559 49.1023 36.4099 47.7383 37.8029 46.3763C37.8259 46.3553 37.8489 46.3333 37.8699 46.3103H37.8649ZM60.2649 74.6003L51.7099 67.7273C51.6202 67.655 51.5172 67.6012 51.4067 67.5688C51.2962 67.5364 51.1804 67.5261 51.0659 67.5384C50.9514 67.5508 50.8404 67.5855 50.7394 67.6408C50.6383 67.696 50.5491 67.7706 50.4769 67.8603C50.4047 67.95 50.3508 68.053 50.3184 68.1635C50.286 68.274 50.2757 68.3898 50.288 68.5043C50.3004 68.6188 50.3352 68.7297 50.3904 68.8308C50.4456 68.9319 50.5202 69.021 50.6099 69.0933L59.5329 76.2653C59.8085 76.5438 59.9988 76.8952 60.0815 77.2782C60.1643 77.6612 60.1359 78.0598 59.9999 78.4273C59.7588 79.1239 59.2834 79.7152 58.6549 80.1003C58.2831 80.3417 57.8435 80.4569 57.4011 80.4288C56.9587 80.4007 56.5371 80.2308 56.1989 79.9443L48.3189 73.6173C48.2666 73.5751 48.2095 73.5392 48.1489 73.5103L48.0139 73.4023C47.8328 73.2564 47.6011 73.1885 47.3699 73.2134C47.1386 73.2383 46.9268 73.3541 46.7809 73.5353C46.635 73.7164 46.5671 73.9481 46.592 74.1793C46.617 74.4105 46.7328 74.6224 46.9139 74.7683L52.7709 79.4753C53.1235 79.7442 53.3802 80.1195 53.5028 80.5456C53.6255 80.9717 53.6076 81.4261 53.4519 81.8413C53.2096 82.5372 52.7345 83.1281 52.1069 83.5143C51.735 83.7552 51.2954 83.8702 50.8531 83.8421C50.4108 83.814 49.9893 83.6444 49.6509 83.3583L45.2349 79.8093C45.1454 79.7352 45.0421 79.6796 44.931 79.6458C44.8198 79.612 44.7031 79.6006 44.5875 79.6123C44.4719 79.624 44.3598 79.6585 44.2577 79.7139C44.1556 79.7692 44.0655 79.8443 43.9926 79.9348C43.9198 80.0253 43.8656 80.1293 43.8333 80.2409C43.801 80.3525 43.7912 80.4694 43.8044 80.5848C43.8176 80.7002 43.8537 80.8118 43.9104 80.9132C43.9671 81.0146 44.0434 81.1036 44.1349 81.1753L47.1959 83.6353C47.25 83.7276 47.3205 83.8092 47.4039 83.8763C47.7564 84.145 48.013 84.5201 48.1357 84.9461C48.2583 85.3721 48.2405 85.8262 48.0849 86.2413C47.8437 86.9375 47.3688 87.5287 46.7409 87.9143C46.369 88.1558 45.9291 88.271 45.4866 88.243C45.044 88.2149 44.6223 88.0449 44.2839 87.7583L41.3349 85.3883L41.3619 85.3543C42.0122 84.5897 42.3717 83.62 42.3769 82.6163C42.3601 81.6955 42.0532 80.8035 41.4999 80.0673C40.9783 79.3585 40.2964 78.7831 39.5099 78.3883C39.1519 78.2095 38.7735 78.0752 38.3829 77.9883C38.6948 77.3537 38.8587 76.6567 38.8624 75.9497C38.866 75.2426 38.7092 74.544 38.4039 73.9063C38.1413 73.3714 37.7732 72.8952 37.3219 72.5063C36.8839 72.1277 36.3706 71.8462 35.8159 71.6803C35.2878 71.5212 34.7304 71.4843 34.1859 71.5723C34.1777 70.9265 34.0056 70.2934 33.6859 69.7323C33.1389 68.7692 32.2446 68.0516 31.1859 67.7263C30.4252 67.4859 29.6077 67.4939 28.8519 67.7493C28.761 67.3138 28.5934 66.898 28.3569 66.5213C28.0212 65.9841 27.5703 65.5284 27.0367 65.1872C26.5031 64.8459 25.9003 64.6277 25.2719 64.5483C24.3599 64.476 23.4451 64.6468 22.6206 65.043C21.796 65.4393 21.0912 66.047 20.5779 66.8043L19.4559 68.2043C18.8474 67.0283 18.0347 65.9699 17.0559 65.0783C16.447 64.5979 15.7453 64.2486 14.9949 64.0523C14.7069 63.9723 14.4189 63.9093 14.1299 63.8523L23.3399 42.9183C25.1084 43.9953 27.0048 44.8466 28.9849 45.4523C31.0374 45.9754 33.1341 46.3068 35.2479 46.4423C34.3409 47.3423 33.5119 48.1843 32.8849 48.8303C32.1572 49.4788 31.5425 50.244 31.0659 51.0943C30.7546 51.8941 30.6368 52.7562 30.7219 53.6103C30.7419 55.6863 30.8859 59.5393 30.9579 61.4703V61.4893C31.0519 63.9793 31.0529 63.9803 32.1649 64.4253C32.6091 64.6122 33.0671 64.7644 33.5349 64.8803C34.2011 65.0482 34.8944 65.0792 35.5729 64.9713C36.3063 64.8275 36.9997 64.5259 37.6049 64.0873C38.2614 63.6225 38.8359 63.0517 39.3049 62.3983C39.6988 61.8456 40.0283 61.2498 40.2869 60.6223C40.5704 59.9351 40.7919 59.2239 40.9489 58.4973C41.0809 57.9023 41.1489 57.4303 41.2109 56.9973C41.2583 56.6254 41.3251 56.2562 41.4109 55.8913L41.4369 55.7913C41.486 55.39 41.6437 55.0096 41.8929 54.6913C42.0078 54.6 42.1407 54.5338 42.2828 54.4971C42.4249 54.4605 42.5731 54.454 42.7179 54.4783C43.1688 54.5489 43.5874 54.7554 43.9179 55.0703L43.9399 55.0883L65.7019 72.5783C65.7271 72.6013 65.7534 72.623 65.7809 72.6433C65.9983 72.8308 66.1756 73.0604 66.302 73.3181C66.4285 73.5759 66.5016 73.8566 66.5169 74.1433C66.5535 74.8002 66.3459 75.4475 65.934 75.9607C65.5222 76.4739 64.9352 76.8167 64.2859 76.9233C63.9949 76.9715 63.6971 76.9587 63.4113 76.8857C63.1256 76.8127 62.8581 76.6811 62.6259 76.4993L60.7259 74.9753C60.6309 74.8843 60.5259 74.7953 60.4259 74.7083C60.376 74.6664 60.3227 74.6302 60.2649 74.6003Z" fill="black"/>
</svg>
