<svg width="513" height="513" viewBox="0 0 513 513" fill="none" xmlns="http://www.w3.org/2000/svg">
<path d="M286.824 0.0300707C278.214 -0.234978 269.64 1.2544 261.623 4.40761C253.606 7.56083 246.315 12.3119 240.192 18.372L10.6354 247.911C-4.19534 262.741 -3.1164 287.081 11.3852 301.583L210.439 500.619C224.941 515.139 249.208 516.236 264.075 501.405L493.961 272.214C505.884 259.194 512.523 241.071 512.34 225.527V224.96L501.733 48.0335C497.984 25.1199 485.184 12.5018 465.141 10.6914C405.781 7.19858 346.184 3.48632 286.824 0.0300707ZM426.007 158.268C426.007 197.768 393.639 230.136 354.139 230.136C314.639 230.136 282.216 197.768 282.216 158.268C282.216 118.768 314.639 86.3448 354.139 86.3448C393.639 86.3448 426.007 118.768 426.007 158.268ZM139.632 246.411L265.959 372.774L240.083 398.614L113.738 272.269L139.632 246.411Z" fill="black"/>
</svg>
