<svg width="512" height="512" viewBox="0 0 512 512" fill="none" xmlns="http://www.w3.org/2000/svg">
<path d="M490.795 0H244.288C244.28 14.6012 247.149 29.0608 252.733 42.5521C258.317 56.0434 266.505 68.3018 276.83 78.6264C287.154 88.951 299.413 97.1392 312.904 102.723C326.395 108.307 340.855 111.176 355.456 111.168H400.811V155.051C400.802 169.652 403.672 184.111 409.256 197.603C414.839 211.094 423.028 223.353 433.352 233.677C443.677 244.002 455.935 252.19 469.427 257.774C482.918 263.357 497.378 266.227 511.979 266.219V21.2053C511.979 15.585 509.747 10.1946 505.775 6.21844C501.803 2.24228 496.415 0.00565424 490.795 0Z" fill="black"/>
<path d="M368.64 122.88H122.155C122.146 137.481 125.016 151.941 130.6 165.432C136.183 178.923 144.372 191.182 154.696 201.506C165.021 211.831 177.279 220.019 190.771 225.603C204.262 231.187 218.722 234.056 233.323 234.048H278.677V277.931C278.675 292.532 281.549 306.991 287.136 320.481C292.723 333.971 300.913 346.228 311.239 356.552C321.565 366.876 333.823 375.064 347.315 380.648C360.806 386.233 375.265 389.104 389.867 389.099V144.085C389.855 138.461 387.615 133.071 383.636 129.096C379.657 125.121 374.264 122.886 368.64 122.88Z" fill="black"/>
<path d="M246.485 245.76H1.84455e-05C-0.00839478 260.361 2.86131 274.821 8.44504 288.312C14.0288 301.803 22.217 314.062 32.5416 324.386C42.8662 334.711 55.1246 342.899 68.6159 348.483C82.1072 354.067 96.5669 356.936 111.168 356.928H156.523V400.811C156.517 415.411 159.389 429.869 164.973 443.359C170.558 456.85 178.747 469.107 189.071 479.431C199.395 489.755 211.652 497.943 225.142 503.528C238.632 509.113 253.09 511.984 267.691 511.979V266.965C267.691 261.341 265.457 255.948 261.48 251.971C257.503 247.994 252.109 245.76 246.485 245.76Z" fill="black"/>
</svg>
