<svg width="512" height="436" viewBox="0 0 512 436" fill="none" xmlns="http://www.w3.org/2000/svg">
<path d="M490.709 422.446H495.552L486.272 408.408C491.947 408.408 494.955 404.803 494.997 400.387C494.997 400.216 494.997 400.024 494.976 399.854C494.976 393.838 491.349 390.958 483.904 390.958H471.872V422.446H476.395V408.728H481.963L490.709 422.446ZM481.643 405.166H476.395V394.52H483.051C486.485 394.52 490.411 395.075 490.411 399.576C490.411 404.739 486.464 405.166 481.643 405.166Z" fill="black"/>
<path d="M368.875 368.878H304.725V268.419C304.725 244.462 304.299 213.635 271.36 213.635C237.952 213.635 232.832 239.726 232.832 266.691V368.878H168.704V162.286H230.293V190.51H231.147C243.712 169.048 267.051 156.227 291.904 157.144C356.928 157.144 368.896 199.918 368.896 255.534L368.875 368.878ZM96.32 134.04C75.7547 134.04 59.0933 117.379 59.0933 96.8136C59.0933 76.2483 75.7547 59.5869 96.32 59.5869C116.885 59.5869 133.547 76.2483 133.547 96.8136C133.547 117.379 116.885 134.04 96.32 134.04ZM128.384 368.878H64.1707V162.286H128.384V368.878ZM400.853 0.0242473H31.936C14.5067 -0.167753 0.213333 13.8056 0 31.2349V401.667C0.213333 419.118 14.5067 433.091 31.936 432.899H400.853C418.325 433.112 432.683 419.139 432.917 401.667V31.2136C432.661 13.7416 418.304 -0.231754 400.853 0.00291297" fill="black"/>
<path d="M482.197 376.942C465.899 377.091 452.8 390.446 452.971 406.744C453.12 423.043 466.475 436.142 482.773 435.971C499.072 435.822 512.171 422.467 512 406.168C511.851 390.083 498.837 377.091 482.773 376.942H482.197ZM482.88 432.579C468.587 432.814 456.128 421.443 455.893 407.15C455.659 392.856 467.051 381.08 481.344 380.846C495.637 380.611 507.413 392.003 507.648 406.296C507.648 406.446 507.648 406.574 507.648 406.723C507.947 420.696 496.853 432.28 482.88 432.579H482.219Z" fill="black"/>
</svg>
