<svg width="86" height="92" viewBox="0 0 86 92" fill="none" xmlns="http://www.w3.org/2000/svg">
<path fill-rule="evenodd" clip-rule="evenodd" d="M3.1985 22.8C4.3905 20.736 7.0305 20.029 9.0945 21.22C11.1585 22.412 11.8665 25.052 10.6745 27.116C9.4825 29.18 6.8435 29.888 4.7785 28.696C2.7145 27.504 2.0075 24.865 3.1985 22.8ZM42.6895 23.456C54.9185 23.456 64.8325 33.37 64.8325 45.6C64.8325 57.83 54.9185 67.743 42.6895 67.743C30.4605 67.743 20.5455 57.829 20.5455 45.6C20.5455 33.371 30.4595 23.456 42.6895 23.456ZM49.2215 3.396C59.7665 5.015 69.2935 10.55 75.9695 18.843C75.2545 19.133 74.5955 19.545 74.0225 20.062C67.7675 12.397 58.9305 7.262 49.1415 5.692C49.3015 4.938 49.3285 4.158 49.2215 3.396ZM82.5095 30.151C86.3355 40.005 86.3355 51.194 82.5095 61.048C81.9025 60.573 81.2165 60.207 80.4825 59.968C83.9745 50.789 83.9745 40.409 80.4825 31.23C81.2165 30.991 81.9025 30.626 82.5095 30.151ZM75.9695 72.356C69.2935 80.65 59.7675 86.185 49.2215 87.803C49.3285 87.04 49.3015 86.26 49.1415 85.507C58.9295 83.937 67.7675 78.802 74.0225 71.137C74.5955 71.654 75.2545 72.066 75.9695 72.356ZM36.1585 87.803C25.6125 86.184 16.0865 80.649 9.4105 72.356C10.1255 72.066 10.7845 71.654 11.3575 71.137C17.6125 78.803 26.4495 83.937 36.2385 85.507C36.0785 86.26 36.0515 87.04 36.1585 87.803ZM2.8695 61.049C-0.9565 51.195 -0.9565 40.006 2.8695 30.152C3.4775 30.627 4.1635 30.993 4.8965 31.232C1.4045 40.41 1.4055 50.791 4.8965 59.97C4.1625 60.209 3.4765 60.574 2.8695 61.049ZM9.4095 18.843C9.6895 18.956 9.9655 19.09 10.2345 19.246C10.6445 19.483 11.0195 19.757 11.3565 20.062C17.6115 12.397 26.4485 7.262 36.2375 5.692C36.0775 4.938 36.0505 4.158 36.1575 3.396C25.6115 5.015 16.0865 10.55 9.4095 18.843ZM42.7025 43.539C36.0955 43.462 30.3635 48.689 29.4135 55.171C29.1765 56.79 29.8565 58.34 31.2075 59.263C37.5775 63.614 47.8005 63.614 54.1705 59.263C55.5215 58.34 56.2025 56.79 55.9645 55.171C54.9925 48.544 49.3715 43.616 42.7025 43.539ZM42.6895 45.81C37.1645 45.9 32.4685 50.036 31.6675 55.501C31.5555 56.265 31.8535 56.948 32.4905 57.383C38.0805 61.201 47.2985 61.201 52.8885 57.383C53.5265 56.947 53.8245 56.264 53.7125 55.501C52.9115 50.036 48.2135 45.9 42.6895 45.81ZM42.6895 28.614C38.8905 28.614 35.8105 31.694 35.8105 35.493C35.8105 39.292 38.8905 42.372 42.6895 42.372C46.4885 42.372 49.5685 39.292 49.5685 35.493C49.5685 31.694 46.4885 28.614 42.6895 28.614ZM42.6895 30.894C40.1495 30.894 38.0905 32.953 38.0905 35.493C38.0905 38.033 40.1485 40.092 42.6895 40.092C45.2305 40.092 47.2885 38.034 47.2885 35.493C47.2885 32.952 45.2305 30.894 42.6895 30.894ZM43.8295 10.813V21.203C43.0675 21.168 42.3125 21.168 41.5495 21.203V10.814C42.3025 10.945 43.0775 10.944 43.8295 10.813ZM63.2515 32.415C63.6605 33.051 64.0405 33.709 64.3895 34.384L73.3835 29.191C73.1425 28.903 72.9235 28.591 72.7295 28.255C72.5355 27.919 72.3745 27.573 72.2455 27.221L63.2505 32.414L63.2515 32.415ZM64.3895 56.815C64.0405 57.49 63.6605 58.148 63.2515 58.784L72.2465 63.977C72.5085 63.261 72.8945 62.592 73.3835 62.007L64.3895 56.815ZM43.8295 69.996V80.386C43.0775 80.255 42.3025 80.255 41.5495 80.386V69.996C42.3115 70.031 43.0675 70.031 43.8295 69.996ZM22.1275 58.785C21.7185 58.148 21.3385 57.491 20.9895 56.816L11.9955 62.009C12.4845 62.594 12.8705 63.263 13.1325 63.979L22.1275 58.785ZM20.9895 34.384C21.3395 33.709 21.7185 33.052 22.1275 32.415L13.1325 27.222C12.8705 27.938 12.4845 28.607 11.9955 29.192L20.9895 34.384ZM42.6895 0C45.0735 0 47.0055 1.932 47.0055 4.316C47.0055 6.7 45.0735 8.632 42.6895 8.632C40.3055 8.632 38.3735 6.7 38.3735 4.316C38.3735 1.932 40.3055 0 42.6895 0ZM82.1805 22.8C80.9885 20.736 78.3495 20.029 76.2845 21.22C74.2205 22.412 73.5135 25.052 74.7045 27.116C75.8965 29.18 78.5365 29.888 80.6005 28.696C82.6645 27.504 83.3725 24.865 82.1805 22.8ZM82.1805 68.4C83.3725 66.335 82.6655 63.696 80.6005 62.504C78.5365 61.312 75.8965 62.02 74.7045 64.084C73.5125 66.148 74.2205 68.788 76.2845 69.98C78.3485 71.172 80.9885 70.464 82.1805 68.4ZM42.6895 91.2C40.3055 91.2 38.3735 89.268 38.3735 86.884C38.3735 84.5 40.3055 82.568 42.6895 82.568C45.0735 82.568 47.0055 84.5 47.0055 86.884C47.0055 89.268 45.0735 91.2 42.6895 91.2ZM3.1985 68.4C4.3905 70.464 7.0305 71.171 9.0945 69.98C11.1585 68.788 11.8665 66.149 10.6745 64.084C9.4825 62.02 6.8435 61.312 4.7785 62.504C2.7145 63.696 2.0075 66.335 3.1985 68.4Z" fill="black"/>
</svg>
