<svg width="470" height="449" viewBox="0 0 470 449" fill="none" xmlns="http://www.w3.org/2000/svg">
<path fill-rule="evenodd" clip-rule="evenodd" d="M199.181 8.01333C210.447 2.96364 222.654 0.353149 235 0.353149C247.346 0.353149 259.553 2.96364 270.819 8.01333C286.413 15.0107 297.763 28.4933 308.045 44.2373C318.328 59.9813 329.635 81.4213 343.715 108.152L433.891 279.267C445.56 301.411 455.011 319.373 461.091 334.136C467.235 349.069 471.352 363.917 468.984 379.107C467.197 390.22 463.111 400.837 456.988 410.282C450.864 419.726 442.838 427.789 433.421 433.955C420.749 442.36 405.539 445.475 388.899 446.904C372.408 448.333 351.352 448.333 325.155 448.333H144.845C118.648 448.333 97.592 448.333 81.1013 446.904C64.4613 445.453 49.2507 442.36 36.5787 433.955C27.1655 427.79 19.1412 419.73 13.018 410.29C6.89472 400.85 2.80708 390.237 1.016 379.128C-1.352 363.917 2.76533 349.048 8.90933 334.136C14.968 319.395 24.44 301.411 36.1093 279.288L126.285 108.152C140.365 81.4213 151.672 59.9813 161.933 44.2373C172.237 28.472 183.565 15.0107 199.181 7.992V8.01333ZM253.304 46.904C247.544 44.3331 241.308 43.0043 235 43.0043C228.693 43.0043 222.456 44.3331 216.696 46.904C212.621 48.7387 206.84 53.5173 197.667 67.5547C188.621 81.4213 178.253 101.069 163.491 129.059L74.3813 298.189C62.072 321.549 53.56 337.72 48.3547 350.392C43.128 363.107 42.6373 369.08 43.1707 372.557C44.7493 382.712 50.7227 392.141 60.1733 398.413C63.8 400.803 70.2853 403.128 84.792 404.387C99.2133 405.667 118.413 405.667 145.869 405.667H324.109C351.587 405.667 370.787 405.667 385.208 404.387C399.715 403.128 406.2 400.803 409.827 398.413C419.277 392.141 425.251 382.712 426.829 372.557C427.363 369.08 426.872 363.107 421.645 350.371C416.44 337.72 407.928 321.549 395.619 298.189L306.509 129.059C291.768 101.069 281.379 81.4427 272.333 67.5547C263.16 53.5173 257.4 48.7387 253.304 46.904ZM234.893 149.667C237.697 149.653 240.475 150.191 243.07 151.252C245.665 152.312 248.026 153.874 250.017 155.847C252.008 157.82 253.591 160.167 254.675 162.752C255.759 165.338 256.322 168.111 256.333 170.915L256.803 277.581C256.814 280.383 256.273 283.159 255.211 285.752C254.15 288.344 252.588 290.702 250.615 292.691C248.642 294.68 246.296 296.261 243.712 297.343C241.128 298.426 238.356 298.989 235.555 299C232.753 299.011 229.977 298.471 227.384 297.409C224.792 296.347 222.434 294.785 220.445 292.812C218.456 290.839 216.875 288.493 215.793 285.909C214.71 283.325 214.147 280.554 214.136 277.752L213.667 171.085C213.655 168.284 214.196 165.507 215.258 162.915C216.32 160.322 217.882 157.964 219.855 155.975C221.828 153.986 224.173 152.406 226.757 151.323C229.341 150.241 232.113 149.678 234.915 149.667H234.893ZM235 320.333C240.658 320.333 246.084 322.581 250.085 326.582C254.086 330.582 256.333 336.009 256.333 341.667V341.88C256.333 347.538 254.086 352.964 250.085 356.965C246.084 360.966 240.658 363.213 235 363.213C229.342 363.213 223.916 360.966 219.915 356.965C215.914 352.964 213.667 347.538 213.667 341.88V341.667C213.667 336.009 215.914 330.582 219.915 326.582C223.916 322.581 229.342 320.333 235 320.333Z" fill="black"/>
</svg>
