<svg width="512" height="512" viewBox="0 0 512 512" fill="none" xmlns="http://www.w3.org/2000/svg">
<path d="M197.333 309.333C182.635 309.333 170.667 297.365 170.667 282.667C170.667 267.968 182.635 256 197.333 256C212.032 256 224 267.968 224 282.667C224 297.365 212.032 309.333 197.333 309.333ZM319.36 343.36C320.655 344.656 321.382 346.413 321.382 348.245C321.382 350.077 320.655 351.835 319.36 353.131C301.163 371.307 266.283 372.715 256.021 372.715C245.76 372.715 210.88 371.307 192.704 353.131C192.06 352.49 191.549 351.729 191.201 350.891C190.852 350.052 190.673 349.153 190.673 348.245C190.673 347.337 190.852 346.438 191.201 345.6C191.549 344.762 192.06 344 192.704 343.36C193.344 342.716 194.106 342.205 194.944 341.857C195.782 341.508 196.681 341.329 197.589 341.329C198.497 341.329 199.396 341.508 200.235 341.857C201.073 342.205 201.834 342.716 202.475 343.36C213.952 354.837 238.485 358.891 256.021 358.891C273.557 358.891 298.091 354.816 309.589 343.339C310.888 342.047 312.647 341.323 314.479 341.327C316.311 341.331 318.067 342.062 319.36 343.36ZM341.333 282.667C341.058 289.555 338.128 296.069 333.157 300.845C328.186 305.62 321.56 308.288 314.667 308.288C307.773 308.288 301.147 305.62 296.176 300.845C291.206 296.069 288.276 289.555 288 282.667C288 267.968 299.968 256 314.667 256C329.365 256 341.333 267.968 341.333 282.667Z" fill="black"/>
<path d="M256 0C114.624 0 0 114.624 0 256C0 397.376 114.624 512 256 512C397.376 512 512 397.376 512 256C512 114.624 397.376 0 256 0ZM404.416 290.112C404.992 293.803 405.291 297.536 405.291 301.333C405.291 358.763 338.432 405.333 255.957 405.333C173.483 405.333 106.624 358.763 106.624 301.333C106.624 297.515 106.944 293.76 107.52 290.048C99.7334 286.546 93.3825 280.481 89.5259 272.863C85.6694 265.246 84.5403 256.537 86.3269 248.188C88.1134 239.839 92.7077 232.355 99.3438 226.983C105.98 221.611 114.257 218.676 122.795 218.667C132.821 218.667 141.909 222.635 148.608 229.077C174.464 210.453 210.176 198.549 249.92 197.44L268.907 108.16C269.087 107.304 269.434 106.492 269.928 105.77C270.422 105.048 271.054 104.43 271.787 103.953C272.521 103.475 273.341 103.147 274.201 102.987C275.061 102.826 275.944 102.837 276.8 103.019L338.837 116.203C340.945 111.944 344.153 108.326 348.129 105.725C352.106 103.123 356.705 101.632 361.452 101.406C366.198 101.18 370.919 102.228 375.124 104.44C379.329 106.653 382.866 109.949 385.369 113.989C387.871 118.028 389.248 122.663 389.357 127.414C389.465 132.164 388.301 136.857 385.985 141.007C383.669 145.156 380.286 148.611 376.186 151.012C372.086 153.414 367.418 154.676 362.667 154.667C348.373 154.667 336.789 143.381 336.128 129.259L280.576 117.44L263.573 197.44C302.741 198.805 337.899 210.709 363.413 229.12C367.336 225.321 372.045 222.428 377.207 220.647C382.369 218.865 387.859 218.238 393.29 218.809C398.721 219.38 403.961 221.136 408.64 223.952C413.318 226.768 417.322 230.577 420.369 235.109C423.416 239.641 425.431 244.786 426.273 250.182C427.115 255.578 426.763 261.092 425.242 266.337C423.721 271.582 421.067 276.429 417.469 280.537C413.871 284.645 409.415 287.913 404.416 290.112Z" fill="black"/>
</svg>
