<svg width="365" height="297" viewBox="0 0 365 297" fill="none" xmlns="http://www.w3.org/2000/svg">
<path d="M327.633 73.803C327.846 77.012 327.846 80.2361 327.846 83.4755C327.846 182.436 252.504 296.544 114.777 296.544V296.483C74.0895 296.544 34.2442 284.892 0 262.919C19.6059 265.28 39.485 263.754 58.5008 258.428C77.5167 253.102 95.2962 244.08 110.823 231.878C95.1957 231.582 80.0514 226.41 67.508 217.084C54.9646 207.759 45.6494 194.746 40.8648 179.866C52.0841 182.024 63.6484 181.587 74.6729 178.588C57.7242 175.168 42.4811 165.989 31.5311 152.607C20.5812 139.226 14.599 122.468 14.6 105.178V104.235C25.0132 110.043 36.6724 113.256 48.5906 113.603C32.7325 103.019 21.5057 86.787 17.1966 68.2143C12.8876 49.6416 15.8205 30.1248 25.3979 13.6389C44.2011 36.7707 67.6579 55.6905 94.246 69.1706C120.834 82.6507 149.96 90.3898 179.732 91.8857C176.012 75.8338 177.685 59.0034 184.491 43.9974C191.297 28.9915 202.858 16.6462 217.386 8.87089C231.913 1.09555 248.598 -1.67661 264.859 0.983161C281.12 3.64293 296.052 11.5864 307.345 23.5851C324.116 20.2783 340.2 14.132 354.902 5.41115C349.305 22.7519 337.606 37.4723 321.976 46.8386C336.824 45.0654 351.325 41.0877 365 35.037C354.947 50.0769 342.294 63.2043 327.633 73.803Z" fill="black"/>
</svg>
