<svg width="510" height="512" viewBox="0 0 510 512" fill="none" xmlns="http://www.w3.org/2000/svg">
<path fill-rule="evenodd" clip-rule="evenodd" d="M435.328 74.4115C411.821 50.7531 383.854 31.9941 353.046 19.2212C322.238 6.44829 289.201 -0.0846476 255.851 0.000828028C116.011 0.000828028 2.19733 113.793 2.13333 253.697C2.07732 298.223 13.7625 341.976 36.0107 380.545L0 512.001L134.485 476.716C171.681 496.982 213.364 507.603 255.723 507.606H255.829C395.648 507.606 509.483 393.793 509.547 253.889C509.657 220.552 503.155 187.523 490.415 156.716C477.675 125.909 458.952 97.9341 435.328 74.4115ZM255.851 464.748H255.765C217.999 464.761 180.926 454.607 148.437 435.35L140.736 430.785L60.928 451.713L82.24 373.889L77.2267 365.91C56.1032 332.299 44.9273 293.394 44.992 253.697C45.0347 137.43 139.648 42.8382 255.957 42.8382C312.277 42.8382 365.227 64.8115 405.035 104.662C424.667 124.217 440.229 147.471 450.819 173.077C461.408 198.684 466.817 226.136 466.731 253.846C466.667 370.156 372.075 464.748 255.851 464.748ZM371.52 306.817C365.184 303.638 334.016 288.3 328.192 286.188C322.389 284.076 318.165 283.009 313.92 289.345C309.675 295.681 297.557 309.974 293.845 314.22C290.155 318.444 286.443 318.977 280.107 315.798C273.771 312.62 253.333 305.942 229.12 284.332C210.283 267.521 197.547 246.764 193.856 240.406C190.165 234.049 193.472 230.636 196.629 227.478C199.488 224.641 202.965 220.076 206.144 216.364C209.344 212.694 210.389 210.049 212.523 205.804C214.635 201.58 213.589 197.868 211.989 194.689C210.389 191.532 197.717 160.321 192.448 147.628C187.307 135.254 182.08 136.94 178.176 136.748C174.485 136.556 170.261 136.534 166.016 136.534C161.792 136.534 154.923 138.113 149.12 144.47C143.317 150.828 126.933 166.166 126.933 197.356C126.933 228.566 149.653 258.71 152.811 262.934C155.968 267.158 197.504 331.201 261.099 358.657C276.224 365.185 288.043 369.089 297.237 372.012C312.427 376.833 326.251 376.15 337.173 374.529C349.355 372.716 374.677 359.19 379.968 344.385C385.259 329.58 385.259 316.865 383.659 314.241C382.08 311.574 377.856 309.996 371.52 306.817Z" fill="black"/>
</svg>
