<svg width="100" height="101" viewBox="0 0 100 101" fill="none" xmlns="http://www.w3.org/2000/svg">
<path d="M98.9725 47.7748C86.1915 34.9938 86.3475 35.0248 85.6285 34.6808C85.0348 34.3996 81.2847 32.712 63.6905 24.712C62.128 23.9933 60.253 24.712 59.5655 26.2745C58.8468 27.837 59.5655 29.712 61.128 30.3995L76.753 37.4933L49.941 49.6813L23.129 37.4933L38.754 30.3995C40.3165 29.6808 41.0352 27.837 40.3165 26.2745C39.5978 24.712 37.754 23.9933 36.1915 24.712C20.9725 31.6182 13.9105 34.868 14.2535 34.6808C13.5348 35.0246 13.8473 34.8371 0.909531 47.7748C-0.621669 49.306 -0.152969 51.931 1.81578 52.8373L36.1908 68.4623C37.3783 68.9936 38.7846 68.7436 39.6908 67.8373L46.847 60.6811V92.0251L18.722 79.2441V68.7441C18.722 67.0253 17.3158 65.6191 15.597 65.6191C13.8782 65.6191 12.472 67.0253 12.472 68.7441C12.472 82.5561 12.347 81.8691 13.0345 82.9321C13.347 83.4009 13.2532 83.4009 13.972 83.8696C14.2845 84.0571 14.0657 84.0259 14.3782 84.1509C51.7842 101.151 49.0032 100.026 49.9722 100.026C50.9412 100.026 48.4097 101.026 85.6282 84.1199C86.7532 83.6199 87.472 82.4949 87.472 81.2761V57.7141L98.128 52.8703C100.128 51.964 100.597 49.3391 99.0343 47.8078L98.9725 47.7748ZM36.7225 61.8688L8.41053 49.0248L16.1917 41.2436L44.5037 54.1186L36.7225 61.8998V61.8688ZM81.1605 79.2128L53.0355 91.9938V60.6498C60.723 68.3373 60.6917 68.7436 62.4105 68.7436C63.4417 68.7436 62.598 68.9624 81.1605 60.5248V79.2438V79.2128ZM63.0985 61.8688L55.3173 54.0876L83.6293 41.2126L91.4105 48.9938L63.0985 61.8688Z" fill="black"/>
<path d="M46.7534 27.8378C46.7534 23.7753 49.0346 20.0878 52.8784 17.9628C55.2534 16.6503 56.5034 14.0566 56.0034 11.3378C55.1909 6.80663 49.5659 4.55663 45.8474 7.71283C43.8162 9.43163 43.1286 12.1816 43.9724 14.5878C44.5349 16.2128 43.6912 17.994 42.0662 18.5878C40.4412 19.1503 38.66 18.3066 38.0662 16.6816C36.3787 11.9004 37.7225 6.36963 41.8162 2.93163C49.1912 -3.28717 60.5352 0.962832 62.1602 10.2754C63.0977 15.5879 60.5664 20.9004 55.879 23.4634C54.0665 24.4634 52.9728 26.1196 52.9728 27.8696C52.9728 32.0571 46.7228 32.3384 46.7228 27.8696L46.7534 27.8378Z" fill="black"/>
<path d="M49.9414 40.6188C48.2226 40.6188 46.8164 39.2126 46.8164 37.4938C46.8164 36.5876 47.5039 34.3688 49.9414 34.3688C51.6602 34.3688 53.0664 35.775 53.0664 37.4938C53.0664 39.2126 51.6602 40.6188 49.9414 40.6188Z" fill="black"/>
</svg>
