<svg width="26" height="17" viewBox="0 0 26 17" fill="none" xmlns="http://www.w3.org/2000/svg">
<path fill-rule="evenodd" clip-rule="evenodd" d="M2.125 8.5C2.125 4.77208 5.14708 1.75 8.875 1.75C9.84166 1.75 10.7609 1.9532 11.5922 2.31921C9.88387 3.83074 8.80682 6.03959 8.80682 8.5C8.80682 10.9604 9.88387 13.1693 11.5922 14.6808C10.7609 15.0468 9.84166 15.25 8.875 15.25C5.14708 15.25 2.125 12.2279 2.125 8.5ZM12.9659 15.6659C11.7602 16.3557 10.3636 16.75 8.875 16.75C4.31865 16.75 0.625 13.0563 0.625 8.5C0.625 3.94365 4.31865 0.25 8.875 0.25C10.3636 0.25 11.7602 0.644274 12.9659 1.33409C14.1716 0.644274 15.5682 0.25 17.0568 0.25C21.6132 0.25 25.3068 3.94365 25.3068 8.5C25.3068 13.0563 21.6132 16.75 17.0568 16.75C15.5682 16.75 14.1716 16.3557 12.9659 15.6659ZM14.3396 2.31921C15.171 1.9532 16.0902 1.75 17.0568 1.75C20.7847 1.75 23.8068 4.77208 23.8068 8.5C23.8068 12.2279 20.7847 15.25 17.0568 15.25C16.0902 15.25 15.171 15.0468 14.3396 14.6808C16.0479 13.1693 17.125 10.9604 17.125 8.5C17.125 6.03959 16.0479 3.83074 14.3396 2.31921ZM12.9659 3.13048C14.5821 4.36371 15.625 6.31007 15.625 8.5C15.625 10.6899 14.5821 12.6363 12.9659 13.8695C11.3497 12.6363 10.3068 10.6899 10.3068 8.5C10.3068 6.31007 11.3497 4.36371 12.9659 3.13048Z" fill="#1F1D1A"/>
</svg>
