
<svg width="26" height="18" viewBox="0 0 26 18" fill="none" xmlns="http://www.w3.org/2000/svg">
<path fill-rule="evenodd" clip-rule="evenodd" d="M2.125 9C2.125 5.27208 5.14708 2.25 8.875 2.25C9.84166 2.25 10.7609 2.4532 11.5922 2.81921C9.88387 4.33074 8.80682 6.53959 8.80682 9C8.80682 11.4604 9.88387 13.6693 11.5922 15.1808C10.7609 15.5468 9.84166 15.75 8.875 15.75C5.14708 15.75 2.125 12.7279 2.125 9ZM12.9659 16.1659C11.7602 16.8557 10.3636 17.25 8.875 17.25C4.31865 17.25 0.625 13.5563 0.625 9C0.625 4.44365 4.31865 0.75 8.875 0.75C10.3636 0.75 11.7602 1.14427 12.9659 1.83409C14.1716 1.14427 15.5682 0.75 17.0568 0.75C21.6132 0.75 25.3068 4.44365 25.3068 9C25.3068 13.5563 21.6132 17.25 17.0568 17.25C15.5682 17.25 14.1716 16.8557 12.9659 16.1659ZM14.3396 2.81921C15.171 2.4532 16.0902 2.25 17.0568 2.25C20.7847 2.25 23.8068 5.27208 23.8068 9C23.8068 12.7279 20.7847 15.75 17.0568 15.75C16.0902 15.75 15.171 15.5468 14.3396 15.1808C16.0479 13.6693 17.125 11.4604 17.125 9C17.125 6.53959 16.0479 4.33074 14.3396 2.81921ZM12.9659 3.63048C14.5821 4.86371 15.625 6.81007 15.625 9C15.625 11.1899 14.5821 13.1363 12.9659 14.3695C11.3497 13.1363 10.3068 11.1899 10.3068 9C10.3068 6.81007 11.3497 4.86371 12.9659 3.63048Z" fill="#F8F5D7"/>
</svg>
