<svg width="438" height="71" viewBox="0 0 438 71" fill="none" xmlns="http://www.w3.org/2000/svg">
<path d="M80.34 0.831998C80.242 1.616 77.498 9.456 77.498 16.512V54.928C77.498 61.984 80.242 69.824 80.34 70.608V71H57.408V70.608C57.506 69.824 60.152 61.984 60.152 54.928V14.16L39.376 71H33.986L11.348 14.356C11.25 15.14 11.25 15.826 11.25 16.61V47.284C11.25 57.672 16.542 69.236 16.738 70.412V71H0.96V70.412C1.156 69.236 6.448 57.672 6.448 47.284V16.61C6.448 9.554 2.43 1.616 2.234 0.831998V0.439997H23.402L42.806 47.872L60.152 0.439997H80.34V0.831998ZM88.1004 71V70.608C88.1984 69.824 90.9424 61.984 90.9424 54.928V16.512C90.9424 9.456 88.1984 1.616 88.1004 0.831998V0.439997H111.13V0.831998C110.934 1.616 108.288 9.456 108.288 16.512V54.928C108.288 61.984 110.934 69.824 111.13 70.608V71H88.1004ZM184.271 0.439997V1.028C184.075 2.204 178.783 13.768 178.783 24.156V71H167.807L128.999 14.16V47.284C128.999 57.672 134.291 69.236 134.585 70.412V71H118.709V70.412C118.905 69.236 124.197 57.672 124.197 47.284V17.296C124.197 9.946 120.081 1.714 119.885 0.831998V0.439997H140.955L173.981 49.244V24.156C173.981 13.768 168.689 2.204 168.493 1.028V0.439997H184.271ZM243.297 52.282H243.787V71H191.161V70.608C191.259 69.824 194.003 61.984 194.003 54.928V16.512C194.003 9.456 191.259 1.616 191.161 0.831998V0.439997H243.493V19.158H243.003C241.925 18.57 231.831 4.75199 222.717 4.75199H211.349V33.074H214.583C223.599 33.074 233.595 27.88 234.575 27.684H235.065V42.188H234.575C233.595 41.992 223.599 36.798 214.583 36.798H211.349V66.688H223.011C232.125 66.688 242.219 52.87 243.297 52.282ZM302.528 47.774C307.82 56.79 310.074 64.728 316.542 70.51V71H295.766C292.924 68.55 289.2 60.122 286.358 53.36C281.85 42.874 276.166 39.052 272.932 38.366H270.972V54.928C270.972 61.984 273.716 69.824 273.814 70.608V71H250.784V70.608C250.882 69.824 253.626 61.984 253.626 54.928V16.512C253.626 9.456 250.882 1.616 250.784 0.831998V0.439997H284.79C298.706 0.439997 308.114 7.986 308.114 18.668C308.114 30.036 299.588 35.72 286.848 36.7C293.512 38.072 298.804 41.6 302.528 47.774ZM270.972 4.26199V34.054H278.616C286.064 34.054 289.592 28.86 289.592 19.55C289.592 10.632 286.162 4.26199 278.812 4.26199H270.972ZM271.364 38.268H271.854C271.658 38.268 271.56 38.268 271.364 38.268ZM378.868 0.439997V0.831998C378.574 1.714 372.596 12.984 369.166 22.686L352.016 71H337.512L316.932 17.198C314.09 9.946 309.092 1.812 308.798 0.929997V0.439997H335.944V0.831998C335.748 1.714 333.004 9.946 335.748 17.198L351.428 58.652L364.952 20.432C367.99 11.71 364.364 2.00799 364.07 0.929997V0.439997H378.868ZM429.764 54.242C432.41 61.494 435.056 66.688 437.898 70.608V71H410.948V70.608C411.242 69.726 413.79 61.494 411.046 54.242L408.4 47.088H383.9L382.528 51.008C379.49 59.73 383.802 69.432 384.096 70.51V71H368.71V70.608C370.768 66.786 374.786 58.456 378.216 48.754L390.76 13.572C392.72 7.88799 389.388 1.42 389.192 0.733999V0.439997H409.576L429.764 54.242ZM385.566 42.482H406.636L395.856 13.278L385.566 42.482Z" fill="black"/>
</svg>
