<svg width="28" height="48" viewBox="0 0 28 48" fill="none" xmlns="http://www.w3.org/2000/svg">
<path d="M9.9 29C6.3 28.1 3.2 25.9 1 23V40.2C7.6 36.3 9.5 30.6 9.9 29Z" fill="black"/>
<path d="M13.7996 29.5C13.1996 29.5 12.4996 29.5 11.8996 29.4C11.4996 31.2 9.29961 38.2 1.09961 42.5V48C8.09961 48 14.4996 45.1 19.0996 40.5C23.5996 36 26.3996 29.8 26.5996 23C23.6996 26.9 18.9996 29.5 13.7996 29.5Z" fill="black"/>
<path d="M21.4996 2.4C19.2996 0.9 16.6996 0 13.7996 0C10.9996 0 8.29961 0.9 6.09961 2.3C7.99961 2.5 10.7996 3.2 13.7996 6.2C16.5996 3.2 19.5996 2.5 21.4996 2.4Z" fill="black"/>
<path d="M14.6 8.40001C14.4 8.60001 14.1 8.70001 13.8 8.80001C13.5 8.80001 13.2 8.70001 13 8.50001C7.9 2.80001 4.6 4.90001 3.7 4.50001C1.4 7.00001 0 10.3 0 13.9C0 21.5 6.2 27.7 13.8 27.7C21.4 27.7 27.6 21.5 27.6 13.9C27.6 10.3 26.2 6.90001 23.9 4.50001C23 4.80001 18.9 3.10001 14.6 8.40001ZM7.1 15.3C5.4 15.3 4.1 14 4.1 12.3C4.1 10.7 5.4 9.30001 7.1 9.30001C8.8 9.30001 10.1 10.7 10.1 12.3C10.1 14 8.8 15.3 7.1 15.3ZM13.8 20.3L11.7 15.3H16L13.8 20.3ZM20.5 15.3C18.8 15.3 17.5 14 17.5 12.3C17.5 10.7 18.8 9.30001 20.5 9.30001C22.2 9.30001 23.5 10.7 23.5 12.3C23.5 14 22.1 15.3 20.5 15.3Z" fill="black"/>
</svg>
